<svg xmlns="http://www.w3.org/2000/svg" style="border:0;height:1px;margin:-1px;padding:0;position:absolute;width:1px" class="root-svg-symbols-element" clip="rect(0 0 0 0)" overflow="hidden"><symbol id="arrow-bottom-red" viewBox="0 0 51 32"><path fill="none" stroke="#d32a33" stroke-width="8.889" stroke-miterlimit="10" d="M47.556 3.556l-22.222 22.222-22.222-22.222"/></symbol><symbol id="arrow-bottom" viewBox="0 0 51 32"><path fill="none" d="M47.556 3.556l-22.222 22.222-22.222-22.222"/></symbol><symbol id="arrow-left" viewBox="0 0 35 32"><path fill="none" stroke="#fff" stroke-width="5.614" stroke-miterlimit="10" d="M17.979 1.967l-14.046 14.046 14.046 14.046"/><path fill="none" stroke="#fff" stroke-width="5.614" stroke-miterlimit="10" d="M3.933 16.013h30.901"/></symbol><symbol id="arrow-right" viewBox="0 0 35 32"><path fill="none" stroke="#fff" stroke-width="5.614" stroke-miterlimit="10" d="M16.842 30.035l14.035-14.035-14.035-14.035"/><path fill="none" stroke="#fff" stroke-width="5.614" stroke-miterlimit="10" d="M30.877 16h-30.877"/></symbol><symbol id="burger-btn" viewBox="0 0 37 32"><path d="M0 0h36.571v4.571h-36.571v-4.571zM0 13.714h36.571v4.571h-36.571v-4.571zM0 27.429h36.571v4.571h-36.571v-4.571z"/></symbol><symbol id="check" viewBox="0 0 12 16"><path fill-rule="evenodd" d="M15.769,1.924 L7.932,9.761 L7.932,9.761 L5.693,12.000 L0.385,6.908 L2.707,4.910 L5.652,7.644 L13.530,0.058 L15.769,1.924 Z"/></symbol><symbol id="clock" viewBox="0 0 1024 1024"><path fill="#d52833" d="M482.906 967.379c-266.903 0-483.268-216.365-483.268-483.328 0-266.903 216.365-483.268 483.268-483.268 266.963 0 483.328 216.365 483.328 483.268 0 266.963-216.365 483.328-483.328 483.328zM480.256 117.76c-200.102 0-362.315 162.214-362.315 362.315s162.214 362.315 362.315 362.315c200.102 0 362.376-162.214 362.376-362.315s-162.274-362.315-362.376-362.315zM443.753 539.407h-22.889v-297.623h120.35v179.14h120.712v118.664l-218.172-0.181z"/></symbol><symbol id="close" viewBox="0 0 32 32"><path d="M0,3.6l0.6,0.6l7.1,7.1l3.9,3.9l0.9,0.9l16,16l3.5-3.5L3.6,0L0,3.6z M0,28.4l9.4-9.4l1.8-1.8l1.2-1.2l16-16L32,3.6L3.6,32	L0,28.4z"/><path transform="rotate(-45.001 16 16)" d="M13.5 13.5H18.5V18.5H13.5z"/></symbol><symbol id="fb" viewBox="0 0 16 32"><path d="M10.64 32h-7.095v-16.002h-3.545v-5.514h3.545v-3.31c0-4.498 2.001-7.174 7.688-7.174h4.734v5.516h-2.959c-2.214 0-2.361 0.771-2.361 2.209l-0.010 2.76h5.362l-0.627 5.514h-4.734v16.002h0.001z"/></symbol><symbol id="insta" viewBox="0 0 87 87"><path d="M57.8,0H29.3C13.1,0,0,13.1,0,29.3v28.5C0,73.9,13.1,87,29.3,87h28.5C73.9,87,87,73.9,87,57.8V29.3C87,13.1,73.9,0,57.8,0z M67.3,24.6c-2.7,0-4.9-2.2-4.9-4.9s2.2-4.9,4.9-4.9c2.7,0,4.9,2.2,4.9,4.9S69.9,24.6,67.3,24.6z M61.8,43.5 c0,10.1-8.2,18.3-18.3,18.3s-18.3-8.2-18.3-18.3s8.2-18.3,18.3-18.3S61.8,33.4,61.8,43.5z"/></symbol><symbol id="mail" viewBox="0 0 43 32"><path d="M0-0.027v32h42.64v-32h-42.64zM2.667 2.587h37.333v26.747h-37.333v-26.747zM5.413 5.413l15.76 14.427 16.16-14.853-16.080 8.347zM8 23.92l7.84-12.507 3.067 4.427zM23.84 15.333l2.747-3.84 8.080 12.347z"/></symbol><symbol id="odnoklassniki" viewBox="0 0 19 32"><path d="M9.312 4.84c-1.897 0-3.444 1.533-3.444 3.419 0 1.884 1.547 3.417 3.444 3.417h-0.001c0.003 0 0.007 0 0.010 0 1.891 0 3.425-1.528 3.435-3.417v-0.001c-0.009-1.889-1.543-3.418-3.435-3.418-0.003 0-0.007 0-0.009 0zM9.312 16.513c-4.587 0-8.317-3.703-8.317-8.255 0-4.555 3.731-8.259 8.317-8.259s8.317 3.704 8.317 8.259c0 4.552-3.729 8.255-8.317 8.255zM12.699 23.253l4.649 4.617c0.441 0.436 0.714 1.042 0.714 1.711s-0.273 1.274-0.714 1.71l-0 0c-0.442 0.438-1.050 0.709-1.722 0.709s-1.28-0.271-1.722-0.709l0 0-4.572-4.537-4.567 4.537c-0.441 0.437-1.048 0.707-1.718 0.707-0.002 0-0.004 0-0.006 0h0c-0.002 0-0.003 0-0.005 0-0.67 0-1.277-0.27-1.718-0.707l0 0c-0.441-0.437-0.713-1.042-0.713-1.711s0.273-1.274 0.713-1.71l0-0 4.649-4.617c-1.829-0.421-3.443-1.106-4.895-2.023l0.065 0.038c-0.687-0.432-1.137-1.187-1.137-2.046 0-0.479 0.14-0.925 0.38-1.3l-0.006 0.010c0.441-0.685 1.199-1.133 2.063-1.133 0.481 0 0.929 0.139 1.307 0.379l-0.010-0.006c1.591 1.001 3.525 1.595 5.599 1.595s4.008-0.594 5.643-1.621l-0.044 0.026c0.368-0.234 0.816-0.372 1.297-0.372 0.863 0 1.622 0.447 2.057 1.123l0.006 0.010c0.717 1.129 0.373 2.624-0.764 3.336-1.388 0.88-3.001 1.565-4.724 1.966l-0.106 0.021z"/></symbol><symbol id="phone" viewBox="0 0 20 32"><path d="M4 0v0c-2.209 0-4 1.791-4 4v24c0 2.209 1.791 4 4 4h12c2.209 0 4-1.791 4-4v-24c0-2.209-1.791-4-4-4h-12zM2 4h16v20h-16.062l0.062-20zM9.782 25.878c0.588 0 1.064 0.476 1.064 1.064s-0.476 1.064-1.064 1.064c-0.588 0-1.064-0.476-1.064-1.064v0c0-0.002-0-0.004-0-0.006 0-0.587 0.475-1.062 1.062-1.062 0.001 0 0.001 0 0.002 0h-0v0.004z"/></symbol><symbol id="picker" viewBox="0 0 704 1024"><path d="M557.632 611.52l-205.632 411.2-205.632-411.2c-81.472-62.208-134.848-159.36-134.848-269.76 0-188.032 152.448-340.48 340.48-340.48s340.48 152.448 340.48 340.48c0 110.4-53.44 207.552-134.848 269.76zM352 111.936c-126.912 0-229.824 102.912-229.824 229.824s102.912 229.824 229.824 229.824c126.912 0 229.824-102.912 229.824-229.824s-102.912-229.824-229.824-229.824z"/></symbol><symbol id="search" viewBox="0 0 15 14.5"><path id="Search" d="M286.7,11.641a4.018,4.018,0,0,1,3.411,6.154l-0.365.581-0.514.416a3.962,3.962,0,0,1-2.532.9,4.024,4.024,0,1,1,0-8.049h0Zm0-1.79a5.816,5.816,0,1,0,3.659,10.332,1.052,1.052,0,0,0,.156.235l3.622,3.623a1.025,1.025,0,0,0,1.448-1.45l-3.622-3.623a1.023,1.023,0,0,0-.336-0.225A5.806,5.806,0,0,0,286.7,9.851h0Z" transform="translate(-280.875 -9.844)" fill-rule="evenodd"/></symbol><symbol id="vk" viewBox="0 0 55 32"><path d="M30.347 31.853c0 0 0.998-0.105 1.509-0.625 0.468-0.476 0.451-1.375 0.451-1.375s-0.062-4.197 1.995-4.816c2.028-0.609 4.631 4.058 7.394 5.853 2.087 1.357 3.671 1.060 3.671 1.060l7.383-0.097c0 0 3.86-0.225 2.030-3.101-0.151-0.236-1.068-2.128-5.488-6.015-4.631-4.069-4.009-3.411 1.565-10.45 3.395-4.286 4.753-6.903 4.328-8.022-0.403-1.070-2.901-0.786-2.901-0.786l-8.31 0.049c0 0-0.616-0.079-1.073 0.179-0.446 0.253-0.735 0.845-0.735 0.845s-1.314 3.316-3.068 6.138c-3.701 5.951-5.18 6.266-5.785 5.897-1.408-0.863-1.057-3.462-1.057-5.308 0-5.769 0.925-8.173-1.798-8.795-0.903-0.207-1.568-0.343-3.879-0.366-2.966-0.028-5.474 0.010-6.896 0.668-0.946 0.438-1.676 1.416-1.23 1.472 0.549 0.069 1.792 0.317 2.452 1.168 0.852 1.098 0.822 3.562 0.822 3.562s0.489 6.791-1.144 7.633c-1.119 0.579-2.655-0.602-5.956-6.002-1.69-2.765-2.966-5.823-2.966-5.823s-0.246-0.571-0.687-0.878c-0.533-0.371-1.276-0.486-1.276-0.486l-7.897 0.049c0 0-1.187 0.031-1.622 0.52-0.387 0.433-0.030 1.331-0.030 1.331s6.183 13.701 13.184 20.607c6.421 6.33 13.709 5.915 13.709 5.915h3.304z"/></symbol><symbol id="youtube" viewBox="0 0 44 32"><path d="M44.308 23.404v-15.793s0-7.611-7.636-7.611h-29.039s-7.633 0-7.633 7.611v15.793s0 7.611 7.631 7.611h29.041s7.636 0 7.636-7.611zM30.757 15.53l-14.506 8.492v-16.987l14.506 8.495z"/></symbol></svg>