<svg id="China" xmlns="http://www.w3.org/2000/svg" width="70" height="47" viewBox="0 0 70 47">
  <metadata><?xpacket begin="﻿" id="W5M0MpCehiHzreSzNTczkc9d"?>
<x:xmpmeta xmlns:x="adobe:ns:meta/" x:xmptk="Adobe XMP Core 5.6-c142 79.160924, 2017/07/13-01:06:39        ">
   <rdf:RDF xmlns:rdf="http://www.w3.org/1999/02/22-rdf-syntax-ns#">
      <rdf:Description rdf:about=""/>
   </rdf:RDF>
</x:xmpmeta>
                                                                                                    
                                                                                                    
                                                                                                    
                                                                                                    
                                                                                                    
                                                                                                    
                                                                                                    
                                                                                                    
                                                                                                    
                                                                                                    
                                                                                                    
                                                                                                    
                                                                                                    
                                                                                                    
                                                                                                    
                                                                                                    
                                                                                                    
                                                                                                    
                                                                                                    
                                                                                                    
                           
<?xpacket end="w"?></metadata>
<defs>
    <style>
      .cls-1 {
        fill: #d91616;
      }

      .cls-2 {
        fill: #f6bb42;
        fill-rule: evenodd;
      }
    </style>
  </defs>
  <rect id="Rounded_Rectangle_7_copy" data-name="Rounded Rectangle 7 copy" class="cls-1" width="70" height="47" rx="6.364" ry="6.364"/>
  <path id="Shape_2_copy_9" data-name="Shape 2 copy 9" class="cls-2" d="M10.3,25.708c-0.825.586-1.3,0.256-1.066-.733l0.889-3.683a3.336,3.336,0,0,0-.958-3L6.478,15.957c-0.766-.663-0.567-1.229.442-1.257l3.768-.107a2.708,2.708,0,0,0,2.355-1.827l1.181-4.023c0.286-.976.8-0.991,1.144-0.034l1.42,3.968a2.846,2.846,0,0,0,2.457,1.76l3.844,0.039c1.009,0.01,1.211.565,0.45,1.233l-2.925,2.564a3.177,3.177,0,0,0-.873,2.991l0.934,3.24c0.282,0.978-.191,1.342-1.052.811L16.5,23.385a3.011,3.011,0,0,0-3.064.1Z"/>
  <path id="Shape_2_copy_10" data-name="Shape 2 copy 10" class="cls-2" d="M27.442,10.149c-0.279.2-.441,0.089-0.36-0.254l0.3-1.279a1.179,1.179,0,0,0-.324-1.043L26.15,6.763c-0.259-.23-0.192-0.427.149-0.437l1.273-.037a0.919,0.919,0,0,0,.8-0.634l0.4-1.4c0.1-.339.27-0.344,0.386-0.012l0.48,1.378a0.963,0.963,0,0,0,.83.611l1.3,0.014c0.341,0,.409.2,0.152,0.428l-0.988.89a1.124,1.124,0,0,0-.295,1.039l0.315,1.125c0.1,0.339-.065.466-0.355,0.281l-1.055-.67a0.993,0.993,0,0,0-1.035.034Z"/>
  <path id="Shape_2_copy_11" data-name="Shape 2 copy 11" class="cls-2" d="M27.442,28.9c-0.279.2-.441,0.089-0.36-0.254l0.3-1.279a1.179,1.179,0,0,0-.324-1.043l-0.909-.809c-0.259-.23-0.192-0.427.149-0.437l1.273-.037a0.919,0.919,0,0,0,.8-0.634l0.4-1.4c0.1-.339.27-0.344,0.386-0.012l0.48,1.378a0.963,0.963,0,0,0,.83.611L31.759,25c0.341,0,.409.2,0.152,0.428l-0.988.89a1.124,1.124,0,0,0-.295,1.039l0.315,1.125c0.1,0.339-.065.466-0.355,0.281l-1.055-.67a0.993,0.993,0,0,0-1.035.034Z"/>
  <path id="Shape_2_copy_12" data-name="Shape 2 copy 12" class="cls-2" d="M34.375,23.542c-0.279.2-.441,0.089-0.36-0.254l0.3-1.279a1.179,1.179,0,0,0-.324-1.043l-0.909-.809c-0.259-.23-0.192-0.427.149-0.437l1.273-.037a0.919,0.919,0,0,0,.8-0.634l0.4-1.4c0.1-.339.27-0.344,0.386-0.012l0.479,1.378a0.963,0.963,0,0,0,.83.611l1.3,0.014c0.341,0,.409.2,0.152,0.428l-0.988.89A1.123,1.123,0,0,0,37.561,22l0.315,1.125c0.1,0.34-.065.466-0.355,0.282l-1.055-.67a0.993,0.993,0,0,0-1.035.034Z"/>
  <path id="Shape_2_copy_13" data-name="Shape 2 copy 13" class="cls-2" d="M34.375,16.4c-0.279.2-.441,0.089-0.36-0.254l0.3-1.279a1.179,1.179,0,0,0-.324-1.043l-0.909-.809c-0.259-.23-0.192-0.427.149-0.437L34.5,12.54a0.919,0.919,0,0,0,.8-0.634l0.4-1.4c0.1-.339.27-0.344,0.386-0.012l0.479,1.378a0.963,0.963,0,0,0,.83.611l1.3,0.014c0.341,0,.409.2,0.152,0.428l-0.988.89a1.123,1.123,0,0,0-.295,1.039l0.315,1.125c0.1,0.339-.065.466-0.355,0.281l-1.055-.67a0.993,0.993,0,0,0-1.035.034Z"/>
</svg>
