<?xml version="1.0" encoding="utf-8"?>
<!-- Generator: Adobe Illustrator 22.1.0, SVG Export Plug-In . SVG Version: 6.00 Build 0)  -->
<svg version="1.1" id="Layer_1" xmlns="http://www.w3.org/2000/svg" xmlns:xlink="http://www.w3.org/1999/xlink" x="0px" y="0px"
	 viewBox="0 0 100 95.7" style="enable-background:new 0 0 100 95.7;" xml:space="preserve">
<style type="text/css">
	.st0{fill:#FFFFFF;}
</style>
<g>
	<path class="st0" d="M9.6,76.6C9.6,76.6,9.5,76.6,9.6,76.6c2.3,10.1,10.5,16.1,24.3,18c-1.3-0.9-2.2-2.4-2.2-4.1c0-0.1,0-0.2,0-0.3
		c-8.4-1.6-14-5.1-16.8-10.5h-0.4C12.4,79.7,10.5,78.4,9.6,76.6z"/>
	<path class="st0" d="M9,43.7c-0.1,0-0.2,0.1-0.2,0.1v25.9c0,0.8,0,1.6,0.1,2.4c0.1,0,0.1,0.1,0.2,0.1V43.7z"/>
	<path class="st0" d="M36.6,87.6H44c1.6,0,2.9,1.3,2.9,2.9c0,1.6-1.3,2.9-2.9,2.9h-0.4v1.8c-3.5,0-6.7-0.2-9.7-0.6
		c0.8,0.5,1.7,0.8,2.7,0.8H44c2.7,0,4.9-2.2,4.9-4.9c0-2.7-2.2-4.9-4.9-4.9h-7.4c-2.6,0-4.7,2-4.8,4.5c0.6,0.1,1.3,0.2,2,0.3
		C33.7,88.9,35,87.6,36.6,87.6z"/>
	<path class="st0" d="M33.9,94.5c3,0.4,6.2,0.6,9.7,0.6v-1.8h-7c-1.6,0-2.9-1.3-2.9-2.9c0,0,0,0,0,0c-0.7-0.1-1.3-0.2-2-0.3
		c0,0.1,0,0.2,0,0.3C31.7,92.2,32.6,93.7,33.9,94.5z"/>
	<path class="st0" d="M46.8,90.5c0-1.6-1.3-2.9-2.9-2.9h-7.4c-1.6,0-2.9,1.3-2.9,2.9c0.7,0.1,1.4,0.2,2.1,0.3c0-0.1-0.1-0.2-0.1-0.3
		c0-0.5,0.4-0.9,0.9-0.9H44c0.5,0,0.9,0.4,0.9,0.9c0,0.5-0.4,0.9-0.9,0.9h-0.4v2H44C45.5,93.4,46.8,92.1,46.8,90.5z"/>
	<path class="st0" d="M36.6,91.4c-0.4,0-0.7-0.3-0.8-0.6c-0.7-0.1-1.4-0.2-2.1-0.3c0,0,0,0,0,0c0,1.6,1.3,2.9,2.9,2.9h7v-2H36.6z"/>
	<path class="st0" d="M43.6,4.2h12.5c13,0,24.3,7.1,30.3,17.7c0-0.3-0.1-0.7-0.3-1C79.7,10.3,68.5,4,56.1,4H43.6
		c-12.4,0-23.6,6.3-30,16.9c-0.2,0.3-0.3,0.7-0.3,1C19.3,11.4,30.6,4.2,43.6,4.2z"/>
	<path class="st0" d="M56.1,8.2H43.6c-11.5,0-21.5,6.3-26.8,15.7c0.2-0.2,0.5-0.4,0.6-0.6C23,14,32.8,8.4,43.6,8.4h12.5
		c10.8,0,20.6,5.5,26.2,14.8c0.2,0.3,0.4,0.5,0.6,0.6C77.6,14.5,67.6,8.2,56.1,8.2z"/>
	<path class="st0" d="M89.5,18.9C82.4,7.1,69.9,0,56.1,0H43.6C29.8,0,17.3,7.1,10.2,18.9c-1.5,2.5-1,5.7,1,7.6
		c0.3-0.7,0.6-1.4,0.9-2.1c0.4-0.9,0.8-1.7,1.3-2.5c0-0.3,0.1-0.7,0.3-1C20,10.3,31.2,4,43.6,4h12.5c12.4,0,23.6,6.3,30,16.9
		c0.2,0.3,0.3,0.6,0.3,1c0.5,0.8,0.9,1.6,1.3,2.5c0.3,0.7,0.6,1.4,0.9,2.1c0.8-0.8,1.4-1.8,1.7-2.9C90.6,22,90.4,20.3,89.5,18.9z"/>
	<path class="st0" d="M84.2,26.3c-0.4-0.8-0.8-1.6-1.2-2.4c-0.2-0.2-0.5-0.4-0.6-0.6C76.7,14,66.9,8.4,56.1,8.4H43.6
		C32.8,8.4,23,14,17.4,23.2c-0.2,0.3-0.4,0.5-0.6,0.6c-0.4,0.8-0.9,1.6-1.2,2.4c-0.3,0.6-0.6,1.3-0.8,2c0.3,0,0.5,0.1,0.8,0.1
		c2.2,0,4.2-1.2,5.3-3c4.9-8.1,13.4-12.9,22.8-12.9h12.5c9.4,0,17.9,4.8,22.8,12.9c1.1,1.9,3.1,3,5.3,3c0.3,0,0.5,0,0.8-0.1
		C84.7,27.6,84.4,26.9,84.2,26.3z"/>
	<path class="st0" d="M14.3,24c-0.7-0.4-1.1-1.2-1.1-2.1c-0.5,0.8-0.9,1.6-1.3,2.5c-0.3,0.7-0.6,1.4-0.9,2.1
		c-1.5,3.9-2.3,8.1-2.3,12.5v0.5c0.3-0.1,0.6-0.2,1-0.3c0.7-1.2,1.8-2.1,3.1-2.6c0.2-2.9,0.9-5.8,1.9-8.4c0.2-0.7,0.5-1.3,0.8-2
		c0.4-0.8,0.8-1.6,1.2-2.4C16.1,24.4,15.1,24.4,14.3,24z"/>
	<path class="st0" d="M88.6,26.5c-0.3-0.7-0.6-1.4-0.9-2.1c-0.4-0.9-0.8-1.7-1.3-2.5c0,0.2,0,0.5,0,0.7c-0.1,0.6-0.5,1.1-1,1.4
		c-0.8,0.5-1.7,0.4-2.4-0.1c0.4,0.8,0.9,1.6,1.2,2.4c0.3,0.6,0.6,1.3,0.8,2c1,2.6,1.6,5.4,1.8,8.3c1.6,0.4,2.9,1.5,3.6,2.9
		c0.2,0,0.4,0.1,0.5,0.1v-0.6C90.9,34.6,90.1,30.4,88.6,26.5z"/>
	<path class="st0" d="M9,74.1v-0.4c-0.1-0.5-0.1-1.1-0.2-1.6C6,70.7,4,67.8,4,64.4v-13c0-3.3,1.9-6.2,4.8-7.6v-4.3
		C3.7,41.1,0,45.8,0,51.4v13c0,5.9,4.1,10.8,9.5,12.1c0-0.1,0-0.2-0.1-0.2C9.2,75.7,9,74.9,9,74.1z"/>
	<path class="st0" d="M8.8,72.1c0,0.5,0.1,1.1,0.2,1.6v-1.5C9,72.2,8.9,72.1,8.8,72.1z"/>
	<path class="st0" d="M9.5,76.3c0,0.1,0,0.2,0.1,0.2c0,0,0,0,0.1,0C9.5,76.5,9.5,76.4,9.5,76.3z"/>
	<path class="st0" d="M9,43.7V42c0-1,0.3-1.9,0.7-2.7c-0.3,0.1-0.6,0.2-1,0.3v4.3C8.8,43.8,8.9,43.7,9,43.7z"/>
	<rect x="13" y="42.9" class="st0" width="0" height="30"/>
	<path class="st0" d="M13,74.1c0,0.3,0.1,0.6,0.3,0.9c-0.1-0.5-0.2-1.1-0.3-1.6V74.1z"/>
	<path class="st0" d="M9,74.1c0,0.8,0.2,1.5,0.5,2.2c-0.2-0.8-0.3-1.7-0.5-2.6V74.1z"/>
	<path class="st0" d="M12.9,72.9L12.9,72.9l0.1-30h-0.2v26.8C12.8,70.8,12.8,71.9,12.9,72.9z"/>
	<path class="st0" d="M12.5,76.9C12.5,76.9,12.4,76.9,12.5,76.9c0.4,0.3,0.9,0.6,1.5,0.7c-0.1-0.2-0.2-0.4-0.2-0.7H12.5z"/>
	<polygon class="st0" points="12.8,38.9 12.7,38.9 12.8,38.9 	"/>
	<path class="st0" d="M12.9,72.9c0,0.2,0,0.3,0.1,0.5L12.9,72.9L12.9,72.9z"/>
	<path class="st0" d="M18.5,36.4h-3.9c-0.6,0-1.2,0.1-1.7,0.3c-1.3,0.4-2.5,1.4-3.1,2.6C9.3,40.1,9,41,9,42v1.7v28.5v1.5
		c0.1,0.9,0.3,1.8,0.5,2.6c0,0.1,0.1,0.2,0.1,0.3c0.9,1.8,2.8,3.1,5,3.1h0.4h3.6c3,0,5.5-2.5,5.5-5.5V42
		C24,38.9,21.5,36.4,18.5,36.4z M12.8,38.9C12.8,38.9,12.8,38.9,12.8,38.9L12.8,38.9C12.8,38.9,12.8,38.9,12.8,38.9z M12.4,76.9
		C12.4,76.9,12.5,76.9,12.4,76.9l1.4,0c0.1,0.2,0.2,0.4,0.2,0.7C13.4,77.5,12.9,77.3,12.4,76.9z M20,74.1c0,0.8-0.7,1.5-1.5,1.5H17
		h-2.5c-0.5,0-1-0.3-1.2-0.6c-0.2-0.3-0.3-0.6-0.3-0.9v-0.7c0-0.2,0-0.3-0.1-0.5c-0.1-1-0.2-2.1-0.2-3.3V42.9H13v-1
		c0-0.8,0.7-1.5,1.5-1.5H17h1.5c0.8,0,1.5,0.7,1.5,1.5V74.1z"/>
	<path class="st0" d="M90.9,39.6v1.5c0,0.3,0.1,0.5,0.1,0.8v1.9c2.9,1.3,5,4.3,5,7.7v13c0,3.4-2.1,6.4-5,7.7v1.7
		c0,1-0.3,1.9-0.7,2.7c5.6-1.3,9.7-6.2,9.7-12.2v-13C100,45.9,96.1,41.1,90.9,39.6z"/>
	<path class="st0" d="M90.9,41.2v-1.5c-0.2,0-0.3-0.1-0.5-0.1C90.7,40,90.8,40.6,90.9,41.2z"/>
	<rect x="87" y="69.7" class="st0" width="0" height="3.5"/>
	<rect x="87" y="43.1" class="st0" width="0" height="26.5"/>
	<path class="st0" d="M87,69.7V43.1h0V42c0-0.1,0-0.3-0.1-0.4L87,69.7L87,69.7z"/>
	<path class="st0" d="M91,43.9V42c0-0.3,0-0.5-0.1-0.8L91,43.9C90.9,43.9,91,43.9,91,43.9z"/>
	<path class="st0" d="M86.9,39.1h0.6c0,0,0.1,0,0.1,0c-0.2-0.2-0.4-0.3-0.7-0.4C86.9,38.9,86.9,39,86.9,39.1L86.9,39.1z"/>
	<path class="st0" d="M86.9,41.6v-2.4H83v1.3h2.5C86.2,40.4,86.7,40.9,86.9,41.6z"/>
	<path class="st0" d="M90.9,43.9v-2.7c-0.1-0.6-0.3-1.2-0.5-1.7c-0.7-1.4-2-2.5-3.6-2.9c-0.4-0.1-0.9-0.2-1.4-0.2h-3.9
		c-3.1,0-5.5,2.5-5.5,5.5v32.2c0,3,2.5,5.5,5.5,5.5h3.9c2.1,0,3.9-1.1,4.8-2.8c0.5-0.8,0.7-1.7,0.7-2.7v-1.7L90.9,43.9
		C91,43.9,90.9,43.9,90.9,43.9z M80,74.1V42c0-0.8,0.7-1.5,1.5-1.5H83v-1.3h3.9v-0.1c0-0.1,0-0.2,0-0.3c0.2,0.1,0.5,0.2,0.7,0.4
		c0,0-0.1,0-0.1,0h-0.6v2.4c0,0.1,0.1,0.3,0.1,0.4v1.2v26.5v3.5v1c0,0.8-0.7,1.5-1.5,1.5H83h-1.5C80.7,75.7,80,75,80,74.1z"/>
	<rect x="38.6" y="55.2" class="st0" width="4.1" height="4"/>
	<rect x="47" y="55.2" class="st0" width="4.1" height="4"/>
	<rect x="55.4" y="55.2" class="st0" width="4.1" height="4"/>
</g>
</svg>
