<?xml version="1.0" encoding="utf-8"?>
<!-- Generator: Adobe Illustrator 22.1.0, SVG Export Plug-In . SVG Version: 6.00 Build 0)  -->
<svg version="1.1" id="Layer_1" xmlns="http://www.w3.org/2000/svg" xmlns:xlink="http://www.w3.org/1999/xlink" x="0px" y="0px"
	 viewBox="0 0 98.7 101.7" style="enable-background:new 0 0 98.7 101.7;" xml:space="preserve">
<style type="text/css">
	.st0{fill:#FCFCFC;}
	.st1{fill:#FFFFFF;}
</style>
<g>
	<g>
		<path class="st0" d="M66.3,71.1c-0.4,0.4-0.6,0.9-0.6,1.4v29.2h4V73.3c2.3-2.4,4.1-5,5.6-7.9c-1.7,0.5-3.5,1-5.4,1.2
			C68.8,68.2,67.6,69.7,66.3,71.1z"/>
		<path class="st0" d="M11.5,50.1c0,0.3,0,0.6,0,0.9l-10,17.2c-0.4,0.6-0.4,1.4,0,2c0.4,0.6,1,1,1.7,1h5.4v10.5
			c0,5.8,4.7,10.5,10.5,10.5h11.5v9.4h4V90.4c0-1.1-0.9-2-2-2H19.2c-3.6,0-6.5-2.9-6.5-6.5V69.3c0-1.1-0.9-2-2-2H6.8l8.5-14.7
			c0.2-0.3,0.3-0.7,0.3-1.1c0-0.4,0-0.9,0-1.3c0-12.2,7.4-22.7,17.9-27.2c0.6-1.8,1.3-3.4,2.2-5C21.7,22,11.5,34.9,11.5,50.1z"/>
		<path class="st1" d="M65.2,0c-12.8,0-24,7.2-29.6,17.8c-0.9,1.6-1.6,3.3-2.2,5c-1.1,3.3-1.7,6.9-1.7,10.6c0,7.3,2.3,14.2,6.7,20
			l-2.5,9.3l9.3-2.5c5.8,4.4,12.7,6.7,20,6.7c1.6,0,3.2-0.1,4.7-0.3c1.8-0.3,3.6-0.7,5.4-1.2c13.6-4.3,23.4-17,23.4-31.9
			C98.7,15,83.6,0,65.2,0z M77.3,60.4c-1.6,0.7-3.2,1.3-4.9,1.7c-2.3,0.6-4.7,0.9-7.2,0.9c-6.7,0-13.1-2.2-18.4-6.4L46,56l-4.5,1.2
			l1.2-4.5l-0.6-0.8c-4.2-5.3-6.4-11.6-6.4-18.4c0-4.4,1-8.5,2.7-12.3c0.7-1.6,1.6-3.1,2.6-4.5C46.3,9,55.1,4,65.2,4
			c16.3,0,29.5,13.2,29.5,29.5C94.7,45.4,87.5,55.7,77.3,60.4z"/>
	</g>
	<g>
		<g>
			<polygon class="st1" points="60.4,35.2 50,25.5 60.4,15.8 63.1,18.7 55.9,25.5 63.1,32.2 			"/>
		</g>
		<g>
			<rect x="53.9" y="23.5" class="st1" width="21.9" height="4"/>
		</g>
	</g>
	<g>
		<g>
			<polygon class="st1" points="68.4,50.2 65.6,47.2 72.9,40.5 65.6,33.7 68.4,30.8 78.8,40.5 			"/>
		</g>
		<g>
			<rect x="53" y="38.5" class="st1" width="21.9" height="4"/>
		</g>
	</g>
</g>
</svg>
