<?xml version="1.0" encoding="utf-8"?>
<!-- Generator: Adobe Illustrator 22.1.0, SVG Export Plug-In . SVG Version: 6.00 Build 0)  -->
<svg version="1.1" id="Layer_1" xmlns="http://www.w3.org/2000/svg" xmlns:xlink="http://www.w3.org/1999/xlink" x="0px" y="0px"
	 viewBox="0 0 76.7 99.5" style="enable-background:new 0 0 76.7 99.5;" xml:space="preserve">
<style type="text/css">
	.st0{fill:#fff;}
	.st1{fill:#fff;}
</style>
<g>
	<g>
		<g>
			<rect x="36.3" y="0" class="st0" width="4" height="5.5"/>
		</g>
		<g>
			
				<rect x="27.1" y="1.2" transform="matrix(0.9659 -0.259 0.259 0.9659 -3.527197e-02 7.6786)" class="st0" width="4" height="5.5"/>
		</g>
		<g>
			<rect x="18.5" y="4.8" transform="matrix(0.8661 -0.4999 0.4999 0.8661 -1.0104 11.279)" class="st0" width="4" height="5.5"/>
		</g>
		<g>
			<rect x="11.2" y="10.4" transform="matrix(0.707 -0.7072 0.7072 0.707 -5.459 13.1812)" class="st0" width="4" height="5.5"/>
		</g>
		<g>
			<rect x="5.5" y="17.8" transform="matrix(0.5003 -0.8658 0.8658 0.5003 -14.0286 16.7821)" class="st0" width="4" height="5.5"/>
		</g>
		<g>
			<rect x="2" y="26.4" transform="matrix(0.2586 -0.966 0.966 0.2586 -25.1893 25.4267)" class="st0" width="4" height="5.5"/>
		</g>
		<g>
			<rect y="36.3" class="st0" width="5.5" height="4"/>
		</g>
		<g>
			<rect x="1.2" y="45.5" transform="matrix(0.9659 -0.2588 0.2588 0.9659 -12.1687 2.6476)" class="st0" width="5.5" height="4"/>
		</g>
		<g>
			<rect x="4.8" y="54.1" transform="matrix(0.8661 -0.4999 0.4999 0.8661 -27.0462 11.2769)" class="st0" width="5.5" height="4"/>
		</g>
		<g>
			<rect x="67.1" y="53.4" transform="matrix(0.5001 -0.866 0.866 0.5001 -14.0344 87.9264)" class="st0" width="4" height="5.5"/>
		</g>
		<g>
			<rect x="70.7" y="44.8" transform="matrix(0.2587 -0.9659 0.9659 0.2587 7.9619 105.4548)" class="st0" width="4" height="5.5"/>
		</g>
		<g>
			<rect x="71.1" y="36.3" class="st0" width="5.5" height="4"/>
		</g>
		<g>
			<rect x="69.9" y="27.1" transform="matrix(0.9658 -0.2593 0.2593 0.9658 -5.0661 19.8427)" class="st0" width="5.5" height="4"/>
		</g>
		<g>
			<rect x="66.4" y="18.5" transform="matrix(0.8661 -0.4999 0.4999 0.8661 -1.0128 37.3152)" class="st0" width="5.5" height="4"/>
		</g>
		<g>
			<rect x="60.7" y="11.2" transform="matrix(0.7071 -0.7071 0.7071 0.7071 9.2753 48.7519)" class="st0" width="5.5" height="4"/>
		</g>
		<g>
			<rect x="53.4" y="5.5" transform="matrix(0.4999 -0.8661 0.8661 0.4999 21.5441 52.3665)" class="st0" width="5.5" height="4"/>
		</g>
		<g>
			<rect x="44.8" y="2" transform="matrix(0.259 -0.9659 0.9659 0.259 31.3872 48.8604)" class="st0" width="5.5" height="4"/>
		</g>
	</g>
	<g>
		<g>
			
				<rect x="61.5" y="60.6" transform="matrix(0.7072 -0.7071 0.7071 0.7072 -26.1798 63.4297)" class="st0" width="4" height="5.5"/>
		</g>
		<g>
			
				<rect x="10.4" y="61.3" transform="matrix(0.7071 -0.7071 0.7071 0.7071 -40.9132 27.8636)" class="st0" width="5.5" height="4"/>
		</g>
	</g>
	<g>
		<g>
			<polygon class="st0" points="53,35.8 49,35.8 49,34.7 39.1,18.7 27.7,34.8 27.7,35.8 23.7,35.8 23.7,33.5 39.3,11.5 53,33.5 			
				"/>
		</g>
		<g>
			<path class="st0" d="M49.2,37.9l0,45.6H27.5V37.9L49.2,37.9L49.2,37.9z M53.2,33.9l-29.6,0v53.6h29.6L53.2,33.9L53.2,33.9z"/>
		</g>
		<g>
			<g>
				<rect x="31.9" y="37.2" class="st0" width="4" height="48.9"/>
			</g>
			<g>
				<rect x="40.3" y="37.2" class="st0" width="4" height="48.9"/>
			</g>
		</g>
		<g>
			<rect x="35.8" y="18.7" class="st0" width="7.5" height="4"/>
		</g>
		<g>
			<rect x="25.5" y="93.6" class="st1" width="25.7" height="3.9"/>
			<path class="st1" d="M53.1,91.6H23.5v5.9c0,1.1,0.9,2,2,2h25.7c1.1,0,2-0.9,2-2V91.6L53.1,91.6z"/>
		</g>
	</g>
</g>
</svg>
