<?xml version="1.0" encoding="utf-8"?>
<!-- Generator: Adobe Illustrator 22.1.0, SVG Export Plug-In . SVG Version: 6.00 Build 0)  -->
<svg version="1.1" id="Layer_1" xmlns="http://www.w3.org/2000/svg" xmlns:xlink="http://www.w3.org/1999/xlink" x="0px" y="0px"
	 viewBox="0 0 88.9 97" style="enable-background:new 0 0 88.9 97;" xml:space="preserve">
<style type="text/css">
	.st0{fill:#fff;}
	.st1{fill:#FFFFFF;}
</style>
<g>
	<g>
		<g>
			<rect x="48.9" class="st0" width="4" height="8"/>
		</g>
		<g>
			<rect x="39.3" y="3.1" transform="matrix(0.8661 -0.4999 0.4999 0.8661 1.9573 21.6281)" class="st0" width="4" height="8"/>
		</g>
		<g>
			<rect x="32.7" y="10.6" transform="matrix(0.5 -0.866 0.866 0.5 4.6418 37.3382)" class="st0" width="4" height="8"/>
		</g>
		<g>
			<rect x="28.6" y="22.5" class="st0" width="8" height="4"/>
		</g>
		<g>
			<rect x="31.7" y="32" transform="matrix(0.866 -0.5 0.5 0.866 -12.2163 22.4344)" class="st0" width="8" height="4"/>
		</g>
		<g>
			<rect x="67.3" y="28.1" transform="matrix(0.4999 -0.8661 0.8661 0.4999 6.8394 76.0736)" class="st0" width="4" height="8"/>
		</g>
		<g>
			<rect x="67.3" y="20.3" class="st0" width="8" height="4"/>
		</g>
		<g>
			<rect x="64.2" y="10.8" transform="matrix(0.866 -0.5 0.5 0.866 2.7611 35.8081)" class="st0" width="8" height="4"/>
		</g>
		<g>
			<rect x="56.7" y="4.1" transform="matrix(0.4997 -0.8662 0.8662 0.4997 25.1155 55.6169)" class="st0" width="8" height="4"/>
		</g>
	</g>
	<g>
		<path class="st0" d="M66.3,92.2H44.5c-4.4,0-8.5-1.9-11.4-5.3h-5.6v-4h7.6l0.6,0.8c2.1,2.8,5.3,4.5,8.8,4.5l27,0
			c2.2,0,3.9-1.8,3.9-3.9c0-2.2-1.8-3.9-3.9-3.9v-4h4.7c2.2,0,3.9-1.8,3.9-3.9s-1.8-3.9-3.9-3.9v-4h1.6c2.2,0,3.9-1.8,3.9-3.9
			c0-2.2-1.8-3.9-3.9-3.9v-4H81c2.2,0,3.9-1.8,3.9-3.9c0-2.2-1.8-3.9-3.9-3.9H64.4c-0.2,0-0.4,0-0.7,0.1l-0.3,0h-9.3l2.7-9.6v-8.1
			c0-3-2.4-5.4-5.4-5.4h-0.8v10l-3.4,4.8L36.5,48.3c-1.3,1.4-2.3,3.1-2.7,5l-0.4,1.5h-6v-4h2.9c0.7-2,1.8-3.8,3.2-5.3l10.7-11.7
			l2.4-3.4V17.9l1.9-0.1c0.2,0,0.3,0,0.4,0h2.5c5.2,0,9.4,4.2,9.4,9.4v8.6l-1.4,5.1h3.8c0.4-0.1,0.8-0.1,1.2-0.1H81
			c4.4,0,7.9,3.6,7.9,7.9c0,3.2-1.9,6-4.6,7.2c0.9,1.3,1.5,2.9,1.5,4.6c0,2.8-1.4,5.2-3.6,6.6c1.2,1.4,2,3.2,2,5.2
			c0,3.7-2.5,6.8-5.9,7.7c0.8,1.2,1.2,2.6,1.2,4.2c0,4.4-3.6,7.9-7.9,7.9L66.3,92.2z"/>
	</g>
	<g>
		<path fill="#fff" d="M20.7,54.4V93H4V54.4H20.7 M24.7,50.4H0V97h24.7V50.4L24.7,50.4z"/>
	</g>
	<g>
		<rect fill="#fff" x="14.3" y="86.8" class="st1" width="3.1" height="3"/>
	</g>
</g>
</svg>
