<?xml version="1.0" encoding="utf-8"?>
<!-- Generator: Adobe Illustrator 22.1.0, SVG Export Plug-In . SVG Version: 6.00 Build 0)  -->
<svg version="1.1" id="United_Kingdom" xmlns="http://www.w3.org/2000/svg" xmlns:xlink="http://www.w3.org/1999/xlink" x="0px"
	 y="0px" viewBox="0 0 54.3 36.9" style="enable-background:new 0 0 54.3 36.9;" xml:space="preserve">
<style type="text/css">
	.st0{fill:#002C6E;}
	.st1{fill:#FFFFFF;}
	.st2{fill:#D91616;}
</style>
<path id="Rounded_Rectangle_7_copy" class="st0" d="M6.7,1.9h40.1c2.5,0,4.5,2,4.5,4.5v23.9c0,2.5-2,4.5-4.5,4.5H6.7
	c-2.5,0-4.5-2-4.4-4.5V6.4C2.3,3.9,4.3,1.9,6.7,1.9z"/>
<path id="Rectangle_5_copy_5" class="st1" d="M1.9,36.7L0,33.8L52.4,0l1.9,2.9L1.9,36.7z"/>
<path id="Rectangle_5_copy_5-2" class="st2" d="M4.3,34.3l-1.1-1.7l46.5-30l1.1,1.7L4.3,34.3z"/>
<path id="Rectangle_5_copy_6" class="st1" d="M52.2,36.9l1.9-2.9L2.1,0.5L0.2,3.4L52.2,36.9z"/>
<path id="Rectangle_5_copy_6-2" class="st2" d="M49.4,34.2l1.1-1.7L4.1,2.6L2.9,4.4L49.4,34.2z"/>
<path id="Rectangle_5_copy_4" class="st1" d="M2.3,22.9v-8.4h49v8.4C51.3,22.9,2.3,22.9,2.3,22.9z"/>
<path id="Rectangle_5_copy_3" class="st1" d="M22.6,1.9H31v32.9h-8.4V1.9z"/>
<path id="Rectangle_5_copy_2" class="st2" d="M2.3,21.5v-5.6h49v5.6C51.3,21.5,2.3,21.5,2.3,21.5z"/>
<path id="Rectangle_5_copy_2-2" class="st2" d="M24,1.9h5.6v32.9H24V1.9z"/>
</svg>
