<!-- Generated by IcoMoon.io -->
<svg version="1.1" xmlns="http://www.w3.org/2000/svg" width="19" height="32" viewBox="0 0 19 32">
<title>odnoklassniki</title>
<path d="M9.312 4.84c-1.897 0-3.444 1.533-3.444 3.419 0 1.884 1.547 3.417 3.444 3.417h-0.001c0.003 0 0.007 0 0.010 0 1.891 0 3.425-1.528 3.435-3.417v-0.001c-0.009-1.889-1.543-3.418-3.435-3.418-0.003 0-0.007 0-0.009 0zM9.312 16.513c-4.587 0-8.317-3.703-8.317-8.255 0-4.555 3.731-8.259 8.317-8.259s8.317 3.704 8.317 8.259c0 4.552-3.729 8.255-8.317 8.255zM12.699 23.253l4.649 4.617c0.441 0.436 0.714 1.042 0.714 1.711s-0.273 1.274-0.714 1.71l-0 0c-0.442 0.438-1.050 0.709-1.722 0.709s-1.28-0.271-1.722-0.709l0 0-4.572-4.537-4.567 4.537c-0.441 0.437-1.048 0.707-1.718 0.707-0.002 0-0.004 0-0.006 0h0c-0.002 0-0.003 0-0.005 0-0.67 0-1.277-0.27-1.718-0.707l0 0c-0.441-0.437-0.713-1.042-0.713-1.711s0.273-1.274 0.713-1.71l0-0 4.649-4.617c-1.829-0.421-3.443-1.106-4.895-2.023l0.065 0.038c-0.687-0.432-1.137-1.187-1.137-2.046 0-0.479 0.14-0.925 0.38-1.3l-0.006 0.010c0.441-0.685 1.199-1.133 2.063-1.133 0.481 0 0.929 0.139 1.307 0.379l-0.010-0.006c1.591 1.001 3.525 1.595 5.599 1.595s4.008-0.594 5.643-1.621l-0.044 0.026c0.368-0.234 0.816-0.372 1.297-0.372 0.863 0 1.622 0.447 2.057 1.123l0.006 0.010c0.717 1.129 0.373 2.624-0.764 3.336-1.388 0.88-3.001 1.565-4.724 1.966l-0.106 0.021z"></path>
</svg>
