<svg xmlns="http://www.w3.org/2000/svg" width="1024" height="1024" viewBox="0 0 1024 1024"><path fill="#d52833" d="M482.906 967.379c-266.903 0-483.268-216.365-483.268-483.328 0-266.903 216.365-483.268 483.268-483.268 266.963 0 483.328 216.365 483.328 483.268 0 266.963-216.365 483.328-483.328 483.328zM480.256 117.76c-200.102 0-362.315 162.214-362.315 362.315s162.214 362.315 362.315 362.315c200.102 0 362.376-162.214 362.376-362.315s-162.274-362.315-362.376-362.315zM443.753 539.407h-22.889v-297.623h120.35v179.14h120.712v118.664l-218.172-0.181z"/></svg>