<svg xmlns="http://www.w3.org/2000/svg" width="55" height="32" viewBox="0 0 55 32"><path d="M30.347 31.853c0 0 0.998-0.105 1.509-0.625 0.468-0.476 0.451-1.375 0.451-1.375s-0.062-4.197 1.995-4.816c2.028-0.609 4.631 4.058 7.394 5.853 2.087 1.357 3.671 1.060 3.671 1.060l7.383-0.097c0 0 3.86-0.225 2.030-3.101-0.151-0.236-1.068-2.128-5.488-6.015-4.631-4.069-4.009-3.411 1.565-10.45 3.395-4.286 4.753-6.903 4.328-8.022-0.403-1.070-2.901-0.786-2.901-0.786l-8.31 0.049c0 0-0.616-0.079-1.073 0.179-0.446 0.253-0.735 0.845-0.735 0.845s-1.314 3.316-3.068 6.138c-3.701 5.951-5.18 6.266-5.785 5.897-1.408-0.863-1.057-3.462-1.057-5.308 0-5.769 0.925-8.173-1.798-8.795-0.903-0.207-1.568-0.343-3.879-0.366-2.966-0.028-5.474 0.010-6.896 0.668-0.946 0.438-1.676 1.416-1.23 1.472 0.549 0.069 1.792 0.317 2.452 1.168 0.852 1.098 0.822 3.562 0.822 3.562s0.489 6.791-1.144 7.633c-1.119 0.579-2.655-0.602-5.956-6.002-1.69-2.765-2.966-5.823-2.966-5.823s-0.246-0.571-0.687-0.878c-0.533-0.371-1.276-0.486-1.276-0.486l-7.897 0.049c0 0-1.187 0.031-1.622 0.52-0.387 0.433-0.030 1.331-0.030 1.331s6.183 13.701 13.184 20.607c6.421 6.33 13.709 5.915 13.709 5.915h3.304z"/></svg>