<?xml version="1.0" encoding="utf-8"?>
<!-- Generator: Adobe Illustrator 22.1.0, SVG Export Plug-In . SVG Version: 6.00 Build 0)  -->
<svg version="1.1" id="Layer_1" xmlns="http://www.w3.org/2000/svg" xmlns:xlink="http://www.w3.org/1999/xlink" x="0px" y="0px"
	 viewBox="0 0 106.7 103.1" style="enable-background:new 0 0 106.7 103.1;" xml:space="preserve">
<style type="text/css">
	.st0{display:none;fill:#fff;}
	.st1{fill:#fff;}
</style>
<g>
	<g>
		<path class="st0" d="M46.3,83.6H7.1V19H4v67.8h47.1C50.3,84.9,48.4,83.6,46.3,83.6z"/>
		<path class="st0" d="M46.3,14.5H11.1V15h37.3C47.7,14.7,47,14.5,46.3,14.5z"/>
		<path class="st0" d="M46.3,79.6c1.8,0,3.5,0.5,4.9,1.4V19.8c0-0.3,0-0.6,0-0.8H11.1v60.7L46.3,79.6L46.3,79.6z"/>
		<path class="st0" d="M60.4,83.6c-2.1,0-4,1.3-4.8,3.1h47.1V19h-3.1v64.7L60.4,83.6L60.4,83.6z"/>
		<path class="st0" d="M95.6,14.5H60.4c-0.8,0-1.5,0.2-2.1,0.4h37.3C95.6,14.9,95.6,14.5,95.6,14.5z"/>
		<path class="st0" d="M55.6,19.8V81c1.4-0.9,3.1-1.4,4.9-1.4h35.2V19H55.5C55.5,19.3,55.6,19.5,55.6,19.8z"/>
		<path class="st1" d="M51.1,81c-1.4-0.9-3.1-1.4-4.9-1.4H11.1V19h-4v64.7h39.2c2.1,0,4,1.3,4.8,3.1h0.1V81H51.1z"/>
		<path class="st0" d="M55.5,19h-0.3c0,0.3-0.1,0.5-0.1,0.8v61.5c0.1-0.1,0.3-0.2,0.4-0.3V19.8C55.6,19.5,55.5,19.3,55.5,19z"/>
		<path class="st1" d="M11.1,14.5h35.2c0.8,0,1.5,0.2,2.1,0.4h4.1c0.3-0.4,0.5-0.8,0.8-1.2c-1.7-2-4.2-3.3-7.1-3.3H7.1V15h4V14.5z"
			/>
		<path class="st1" d="M51.1,86.8C51.1,86.8,51.1,86.9,51.1,86.8L51.1,86.8L51.1,86.8z"/>
		<path class="st1" d="M55.4,18.3c-0.1,0.2-0.1,0.5-0.2,0.7h0.3C55.5,18.7,55.5,18.5,55.4,18.3z"/>
		<path class="st1" d="M51.3,18.3c0.2-1.2,0.6-2.3,1.2-3.3h-4.1C49.8,15.6,50.8,16.8,51.3,18.3z"/>
		<path class="st1" d="M55.6,88.9v-2c-0.3,0.6-0.4,1.3-0.4,2H55.6z"/>
		<rect x="7.1" y="15" class="st1" width="4" height="4"/>
		<path class="st0" d="M51.6,19.8c0-0.3,0-0.6-0.1-0.8h-0.3c0,0.3,0,0.5,0,0.8V81c0.1,0.1,0.3,0.2,0.4,0.3
			C51.6,81.3,51.6,19.8,51.6,19.8z"/>
		<path class="st1" d="M58.3,15c0.6-0.3,1.4-0.4,2.1-0.4h35.2V15h4v-4.4H60.4c-2.8,0-5.4,1.3-7.1,3.3c0.3,0.4,0.6,0.8,0.8,1.2h4.2
			V15z"/>
		<path class="st1" d="M51.3,18.3c0,0.2-0.1,0.5-0.1,0.7h0.3C51.4,18.7,51.4,18.5,51.3,18.3z"/>
		<path class="st1" d="M51.1,88.9h0.4c0-0.7-0.1-1.4-0.4-2V88.9z"/>
		<path class="st1" d="M55.6,86.9C55.6,86.9,55.6,86.8,55.6,86.9L55.6,86.9L55.6,86.9z"/>
		<path class="st1" d="M58.3,15h-4.1c0.6,1,1,2.1,1.2,3.3C55.9,16.8,56.9,15.6,58.3,15z"/>
		<rect x="95.6" y="15" class="st1" width="4" height="4"/>
		<path class="st1" d="M54.2,15c-0.3-0.4-0.5-0.8-0.8-1.2c-0.3,0.4-0.6,0.8-0.8,1.2H54.2z"/>
		<path class="st1" d="M55.1,19.8c0-0.3,0-0.6,0.1-0.8h-3.8c0,0.3,0.1,0.5,0.1,0.8v61.5c-0.1-0.1-0.3-0.2-0.4-0.3v5.7h4.4V81
			c-0.1,0.1-0.3,0.2-0.4,0.3C55.1,81.3,55.1,19.8,55.1,19.8z"/>
		<path class="st1" d="M51.5,19h3.8c0-0.3,0.1-0.5,0.2-0.7c-0.2-1.2-0.6-2.3-1.2-3.3h-1.7c-0.6,1-1,2.1-1.2,3.3
			C51.4,18.5,51.4,18.7,51.5,19z"/>
		<path class="st1" d="M51.1,86.8L51.1,86.8c0.3,0.7,0.4,1.4,0.4,2.1h3.6c0-0.7,0.1-1.4,0.4-2v-0.1H51.1z"/>
	</g>
	<g>
		<g>
			<rect x="16.5" y="20.1" class="st1" width="17.3" height="4"/>
		</g>
		<g>
			<rect x="16.5" y="31.4" class="st1" width="29.1" height="4"/>
		</g>
		<g>
			<rect x="16.5" y="39.6" class="st1" width="29.1" height="4"/>
		</g>
		<g>
			<rect x="16.5" y="47.9" class="st1" width="20.8" height="4"/>
		</g>
	</g>
	<g>
		<g>
			<path class="st1" d="M75.7,84c-1.6,0-3.2,0.3-4.6,0.7l4.6,12.6l4.6-12.6C78.9,84.3,77.3,84,75.7,84z"/>
			<g>
				<polygon class="st1" points="75.7,91.5 76,90.8 75.4,90.8 				"/>
				<path class="st1" d="M55.6,86.8C55.6,86.8,55.6,86.9,55.6,86.8l-0.1,2.1h-0.4h-3.6h-0.4v-2c0,0,0-0.1-0.1-0.1H4V19h3.1v-4H0
					v75.8h71.2l-1.5-4H55.6z"/>
				<polygon class="st1" points="106.7,15 99.6,15 99.6,19 102.7,19 102.7,86.8 81.7,86.8 80.2,90.8 106.7,90.8 				"/>
				<path class="st1" d="M73.8,86.2c1.3-0.2,2.6-0.2,3.9,0l-0.2,0.6h4.3l1.2-3.3l-2-0.6c-3.3-1.1-7.1-1-10.4,0l-2,0.6l1.2,3.3H74
					L73.8,86.2z"/>
				<polygon class="st1" points="75.7,91.5 75.4,90.8 71.2,90.8 75.7,103.1 80.2,90.8 76,90.8 				"/>
				<polygon class="st1" points="77.4,86.8 76,90.8 80.2,90.8 81.7,86.8 				"/>
				<polygon class="st1" points="74,86.8 69.7,86.8 71.2,90.8 75.4,90.8 				"/>
			</g>
		</g>
		<g>
			<g>
				<path class="st1" d="M70.6,0.8v5.1h10.2V0.8c0-0.5-0.5-0.8-1.1-0.8h-7.9C71.1,0,70.6,0.4,70.6,0.8z"/>
			</g>
			<g>
				<g>
					<path class="st1" d="M82.9,14.8H68.5V3.7h14.3L82.9,14.8L82.9,14.8z M72.5,10.8h6.3V7.7h-6.3V10.8z"/>
				</g>
			</g>
		</g>
		<g>
			<polygon class="st1" points="99.6,19 95.6,19 95.6,79.6 82.7,79.6 82.7,83.6 99.6,83.6 			"/>
			<path class="st1" d="M60.4,79.6c-1.8,0-3.5,0.5-4.9,1.4v5.7h0.1c0.8-1.8,2.7-3.1,4.8-3.1h8.3v-4H60.4z"/>
			<g>
				<path class="st1" d="M78.7,14.8v42.5v11.4v10.9h-6.1V69.5V57.3V14.8H78.7 M82.7,10.8h-14v46.5v12.2v14.1h14.1V68.7V57.3
					L82.7,10.8L82.7,10.8z"/>
			</g>
		</g>
	</g>
</g>
</svg>
