<?xml version="1.0" encoding="utf-8"?>
<!-- Generator: Adobe Illustrator 22.1.0, SVG Export Plug-In . SVG Version: 6.00 Build 0)  -->
<svg version="1.1" id="Layer_1" xmlns="http://www.w3.org/2000/svg" xmlns:xlink="http://www.w3.org/1999/xlink" x="0px" y="0px"
	 viewBox="0 0 78 101.5" style="enable-background:new 0 0 78 101.5;" xml:space="preserve">
<style type="text/css">
	.st0{fill:#012742;}
	.st1{fill:none;}
</style>
<g>
	<g>
		<path class="st0" d="M66.6,25.7c-0.5-0.5-1-1-1.5-1.4l-2.7,3c0.5,0.4,0.9,0.9,1.4,1.3L66.6,25.7z"/>
		<path class="st0" d="M8.2,36.6l-3.5-1.9C4,36,3.4,37.3,2.8,38.6l3.7,1.5C7,38.9,7.6,37.7,8.2,36.6z"/>
		<path class="st0" d="M4,53.2c0-0.6,0-1.2,0-1.9l-4-0.2C0,51.9,0,52.5,0,53.2c0,0.8,0,1.5,0.1,2.2l4-0.2C4,54.6,4,53.9,4,53.2z"/>
		<path class="st0" d="M5.3,43.8l-3.9-1.1c-0.4,1.4-0.7,2.8-0.9,4.2l3.9,0.6C4.7,46.3,5,45,5.3,43.8z"/>
		<path class="st0" d="M12.6,30.3l-3-2.6c-0.9,1.1-1.8,2.2-2.6,3.4l3.3,2.3C11,32.3,11.8,31.2,12.6,30.3z"/>
		<path class="st0" d="M4.5,59.1l-3.9,0.7c0.2,1.4,0.6,2.8,1,4.2l3.8-1.1C5,61.6,4.7,60.4,4.5,59.1z"/>
		<path class="st0" d="M7,75.6c0.8,1.2,1.7,2.3,2.7,3.4l3-2.6c-0.9-1-1.7-2-2.4-3L7,75.6z"/>
		<path class="st0" d="M12.7,82c1.1,1,2.2,1.9,3.3,2.7l2.4-3.2c-1-0.8-2-1.6-3-2.4L12.7,82z"/>
		<path class="st0" d="M6.6,66.5L2.9,68c0.5,1.3,1.2,2.6,1.9,3.9L8.3,70C7.7,68.9,7.1,67.7,6.6,66.5z"/>
		<path class="st0" d="M58.4,82.4l2.2,3.3c1.2-0.8,2.4-1.7,3.4-2.6l-2.6-3.1C60.5,80.9,59.4,81.7,58.4,82.4z"/>
		<path class="st0" d="M72.2,64.3l3.8,1.3c0.5-1.4,0.8-2.8,1.1-4.2l-3.9-0.8C73,61.8,72.6,63.1,72.2,64.3z"/>
		<path class="st0" d="M64.3,77.4l2.9,2.8c1-1,1.9-2.1,2.8-3.3l-3.2-2.4C66,75.5,65.2,76.5,64.3,77.4z"/>
		<path class="st0" d="M69,71.3l3.4,2.1c0.7-1.2,1.4-2.5,2-3.8l-3.6-1.7C70.3,69,69.7,70.2,69,71.3z"/>
		<path class="st0" d="M78,52.8l-4,0l0,0.4c0,1.2-0.1,2.3-0.2,3.5l4,0.4c0.1-1.3,0.2-2.6,0.2-3.9L78,52.8z"/>
		<path class="st0" d="M73.7,49l4-0.5c-0.2-1.4-0.4-2.8-0.8-4.2l-3.9,0.9C73.4,46.5,73.6,47.7,73.7,49z"/>
		<path class="st0" d="M68.6,34.6l3.4-2.1c-0.8-1.2-1.6-2.4-2.5-3.5l-3.1,2.5C67.2,32.4,67.9,33.5,68.6,34.6z"/>
		<path class="st0" d="M72,41.5l3.8-1.3c-0.5-1.3-1-2.7-1.7-4l-3.6,1.8C71,39.1,71.6,40.3,72,41.5z"/>
		<path class="st0" d="M16.8,26.2l-2.5-3.1c-0.5,0.4-1.1,0.9-1.6,1.4l2.7,2.9C15.8,27,16.3,26.6,16.8,26.2z"/>
	</g>
	<g>
		<g>
			<path class="st1" d="M39.2,45.8c8-0.1,14.4-6.6,14.4-14.6V4c-0.1,0-0.2,0-0.3,0c-6.3,0-11.9,2.8-15.7,7.1c1,2.3,1.6,4.8,1.6,7.5
				V45.8z"/>
			<path class="st1" d="M34.7,15.1c-1.6,3-2.5,6.4-2.5,10v19c0,0,0,0,0,0c0.5,0.3,1,0.5,1.5,0.7c0,0,0,0,0.1,0
				c0.4,0.2,0.9,0.3,1.3,0.4V18.6C35.2,17.4,35,16.2,34.7,15.1z"/>
			<path class="st1" d="M32.8,10.6c-1.9-2.9-4.9-5.2-8.4-6.1v26.7c0,3.8,1.4,7.2,3.8,9.8V25.1C28.2,19.7,29.9,14.7,32.8,10.6z"/>
			<path class="st0" d="M32.2,44.1C32.2,44.2,32.2,44.2,32.2,44.1C32.2,44.2,32.2,44.1,32.2,44.1L32.2,44.1z"/>
			<path class="st0" d="M32.3,48.6c-0.3-0.1-0.5-0.2-0.7-0.3C31.8,48.4,32.1,48.5,32.3,48.6z"/>
			<path class="st0" d="M33.8,44.9C33.8,44.9,33.8,44.9,33.8,44.9C33.8,44.9,33.8,44.9,33.8,44.9z"/>
			<path class="st0" d="M35.3,49.5c-0.1,0-0.1,0-0.2,0C35.2,49.4,35.3,49.4,35.3,49.5z"/>
			<path class="st0" d="M33.7,49.1c-0.2-0.1-0.4-0.1-0.6-0.2C33.3,48.9,33.5,49,33.7,49.1z"/>
			<path class="st0" d="M28.8,46.8c0.7,0.5,1.5,0.9,2.3,1.3c-0.7-0.3-1.3-0.6-1.9-1L28.8,46.8z"/>
			<path class="st0" d="M24.4,31.3V4.5c3.5,1,6.5,3.2,8.4,6.1c0.8-1.1,1.7-2.2,2.7-3.2c-3-4-7.5-6.7-12.8-7.3l-2.1-0.2L20.5,2
				c0,0.3,0,0.7,0,1v28.2c0,6.2,3,11.7,7.8,15.1v-5.3C25.8,38.5,24.4,35,24.4,31.3z"/>
			<path class="st0" d="M36.7,49.7c0.1,0,0.1,0,0.2,0l2.1,0.2l0-0.1c0,0,0,0,0,0C38.2,49.8,37.5,49.8,36.7,49.7z"/>
			<path class="st0" d="M35.2,18.6v26.7c1.2,0.3,2.5,0.5,3.8,0.5c0.1,0,0.1,0,0.2,0V18.6c0-2.7-0.6-5.2-1.6-7.5
				c-1.1,1.2-2.1,2.6-2.8,4C35,16.2,35.2,17.4,35.2,18.6z"/>
			<path class="st0" d="M31.6,48.3c-0.2-0.1-0.4-0.2-0.5-0.2C31.2,48.1,31.4,48.2,31.6,48.3z"/>
			<path class="st0" d="M33.1,48.8c-0.3-0.1-0.5-0.2-0.7-0.3C32.6,48.7,32.8,48.8,33.1,48.8z"/>
			<path class="st0" d="M35.1,49.4c-0.5-0.1-1-0.2-1.4-0.4C34.2,49.2,34.7,49.3,35.1,49.4z"/>
			<path class="st0" d="M36.7,49.7c-0.5-0.1-0.9-0.1-1.4-0.2C35.8,49.5,36.3,49.6,36.7,49.7z"/>
			<path class="st0" d="M28.2,46.4l0.6,0.4C28.6,46.6,28.4,46.5,28.2,46.4L28.2,46.4z"/>
			<path class="st0" d="M57.5,2l-0.1-1.7l-1.7-0.2C54.9,0,54.1,0,53.3,0c-7,0-13.3,2.9-17.8,7.5c0.8,1.1,1.5,2.3,2.1,3.6
				C41.4,6.8,47.1,4,53.3,4c0.1,0,0.2,0,0.3,0v27.3c0,8-6.5,14.5-14.4,14.6v1c0,0.3,0,0.7,0,1l-0.1,2c10.2,0,18.5-8.3,18.5-18.6V3
				C57.6,2.7,57.6,2.3,57.5,2z"/>
			<path class="st0" d="M33.8,44.9c-0.5-0.2-1-0.4-1.5-0.7C32.7,44.4,33.2,44.7,33.8,44.9z"/>
			<path class="st0" d="M35.2,45.3L35.2,45.3c-0.4-0.1-0.9-0.3-1.3-0.4C34.3,45,34.7,45.2,35.2,45.3z"/>
			<path class="st0" d="M34.7,15.1c0.8-1.4,1.7-2.8,2.8-4c-0.6-1.3-1.3-2.5-2.1-3.6c-1,1-1.9,2-2.7,3.2C33.7,12,34.3,13.5,34.7,15.1
				z"/>
			<path class="st0" d="M39.2,46.8v-1c-0.1,0-0.1,0-0.2,0c-1.3,0-2.6-0.2-3.8-0.5v0c-0.5-0.1-0.9-0.3-1.3-0.4c0,0,0,0-0.1,0
				c-0.5-0.2-1-0.4-1.5-0.7c0,0,0,0,0,0v0c-1.5-0.8-2.9-1.8-4-3.1v5.3c0.2,0.1,0.4,0.3,0.6,0.4l0.4,0.2c0.6,0.4,1.3,0.7,1.9,1
				c0.2,0.1,0.3,0.2,0.5,0.2c0.2,0.1,0.5,0.2,0.7,0.3c0.2,0.1,0.5,0.2,0.7,0.3c0.2,0.1,0.4,0.1,0.6,0.2c0.5,0.1,0.9,0.3,1.4,0.4
				c0.1,0,0.1,0,0.2,0c0.5,0.1,0.9,0.2,1.4,0.2c0.7,0.1,1.5,0.1,2.3,0.1c0,0,0,0,0,0l0.1-2C39.1,47.5,39.2,47.1,39.2,46.8z"/>
		</g>
		<g>
			<path class="st1" d="M35.2,10.8c1.8-2.2,4-4.2,6.5-5.6C40,4,38.1,2.9,35.9,2c-2.2,0.9-4.1,2-5.7,3.1C32.3,6.6,34,8.5,35.2,10.8z"
				/>
			<path class="st0" d="M34.9,14.4l-1.4-2.7c-1-2-2.6-3.7-4.4-5l-2.3-1.6l2.3-1.6c1.7-1.2,3.8-2.3,6-3.3l0.8-0.3l0.8,0.3
				c2.3,1,4.4,2.1,6.1,3.4l2.5,1.8l-2.7,1.6c-2.3,1.3-4.3,3.1-5.9,5.1L34.9,14.4z M33.6,5.4c0.7,0.7,1.3,1.4,1.8,2.1
				c0.8-0.8,1.6-1.6,2.5-2.2c-0.7-0.4-1.3-0.7-2.1-1C35.1,4.6,34.4,5,33.6,5.4z"/>
		</g>
	</g>
	<path class="st0" d="M53.3,60.8l-0.1-2.1l-2.1,0.2c-4.1,0.5-7.6,2.4-10.1,5.3V47.4h-4v16.3c-2.5-2.9-6.1-4.8-10.1-5.3l-2.1-0.2
		l-0.1,2.1c0,0.3,0,0.6,0,0.9v23.7c0,0.1,0,0.2,0,0.3c0,0.4,0,0.8,0.1,1.2c0.6,6.9,5.6,12.6,12.3,14.1l0,1.1l2.2-0.2
		c0.5-0.1,1.1-0.2,1.6-0.3l0.1,0l0-0.1c5.8-1.3,10.4-5.8,11.9-11.5c0.3-1.3,0.5-2.6,0.5-4v-0.2V61.7C53.4,61.4,53.3,61.1,53.3,60.8z
		 M37,96.3c-2.7-0.8-5-2.6-6.5-5c-0.9-1.4-1.5-2.9-1.7-4.6c-0.1-0.6-0.1-1.2-0.1-1.8v-22c4.9,1.5,8.3,6,8.4,11.3v0.5
		c0,0,0,0.1,0,0.1l0,5.6l0,7.9l0,4L37,96.3z M49.4,85.4c0,1.5-0.3,3-0.8,4.4c-0.2,0.5-0.4,1-0.7,1.5c-1.5,2.6-3.9,4.6-6.8,5.5L41,81
		v-1.5l0-5.1c0.1-5.2,3.5-9.6,8.4-11.1V85.4z"/>
</g>
</svg>
