<svg xmlns="http://www.w3.org/2000/svg" id="China" width="70" height="47">
  <defs>
    <style>
      .cls-2{fill:#f6bb42;fill-rule:evenodd}
    </style>
  </defs>
  <rect id="Rounded_Rectangle_7_copy" width="70" height="47" fill="#d91616" data-name="Rounded Rectangle 7 copy" rx="6.36" ry="6.36"/>
  <path id="Shape_2_copy_9" d="M10.3 25.7c-.82.6-1.3.26-1.07-.73l.9-3.68a3.34 3.34 0 0 0-.97-3l-2.68-2.33c-.77-.67-.57-1.23.44-1.26l3.77-.1a2.7 2.7 0 0 0 2.35-1.83l1.18-4.03c.29-.97.8-.99 1.15-.03l1.42 3.97a2.85 2.85 0 0 0 2.46 1.76l3.84.04c1 0 1.21.56.45 1.23l-2.93 2.56a3.18 3.18 0 0 0-.87 3l.94 3.23c.28.98-.2 1.35-1.06.82l-3.12-1.93a3.01 3.01 0 0 0-3.06.1z" class="cls-2" data-name="Shape 2 copy 9"/>
  <path id="Shape_2_copy_10" d="M27.44 10.15c-.28.2-.44.09-.36-.26l.3-1.27a1.18 1.18 0 0 0-.32-1.05l-.91-.8c-.26-.24-.2-.43.15-.44l1.27-.04a.92.92 0 0 0 .8-.64l.4-1.4c.1-.33.27-.34.39 0l.48 1.37a.96.96 0 0 0 .83.61l1.3.02c.34 0 .4.2.15.42l-.99.9a1.12 1.12 0 0 0-.3 1.03l.32 1.13c.1.34-.06.46-.35.28l-1.06-.67a1 1 0 0 0-1.03.03z" class="cls-2" data-name="Shape 2 copy 10"/>
  <path id="Shape_2_copy_11" d="M27.44 28.9c-.28.2-.44.09-.36-.25l.3-1.28a1.18 1.18 0 0 0-.32-1.05l-.91-.8c-.26-.24-.2-.43.15-.44l1.27-.04a.92.92 0 0 0 .8-.63l.4-1.4c.1-.34.27-.35.39-.02l.48 1.38a.96.96 0 0 0 .83.61l1.29.02c.34 0 .4.2.15.43l-.99.89a1.12 1.12 0 0 0-.3 1.04l.32 1.12c.1.34-.06.47-.35.28l-1.06-.67a1 1 0 0 0-1.03.04z" class="cls-2" data-name="Shape 2 copy 11"/>
  <path id="Shape_2_copy_12" d="M34.38 23.54c-.28.2-.45.1-.37-.25l.3-1.28a1.18 1.18 0 0 0-.32-1.04l-.9-.81c-.27-.23-.2-.43.14-.44l1.27-.04a.92.92 0 0 0 .8-.63l.4-1.4c.1-.34.27-.34.39-.01l.48 1.37a.96.96 0 0 0 .83.62l1.3.01c.34 0 .4.2.15.43l-.99.89a1.12 1.12 0 0 0-.3 1.04l.32 1.13c.1.34-.07.46-.36.28l-1.05-.67a1 1 0 0 0-1.04.03z" class="cls-2" data-name="Shape 2 copy 12"/>
  <path id="Shape_2_copy_13" d="M34.38 16.4c-.28.2-.45.09-.37-.25l.3-1.28a1.18 1.18 0 0 0-.32-1.05l-.9-.8c-.27-.24-.2-.43.14-.44l1.27-.04a.92.92 0 0 0 .8-.63l.4-1.4c.1-.34.27-.35.39-.02l.47 1.38a.96.96 0 0 0 .83.61l1.3.02c.35 0 .41.2.16.42l-1 .9a1.12 1.12 0 0 0-.29 1.03l.32 1.13c.1.34-.07.46-.36.28l-1.05-.67a1 1 0 0 0-1.04.03z" class="cls-2" data-name="Shape 2 copy 13"/>
</svg>
