<svg xmlns="http://www.w3.org/2000/svg" xmlns:xlink="http://www.w3.org/1999/xlink" viewBox="0 0 14 14">
  <defs>
    <path id="a" d="M8.4 7l5.3 5.3c.4.4.4 1 0 1.4-.4.4-1 .4-1.4 0L7 8.4l-5.3 5.3c-.4.4-1 .4-1.4 0-.4-.4-.4-1 0-1.4L5.6 7 .3 1.7C-.1 1.3-.1.7.3.3c.4-.4 1-.4 1.4 0L7 5.6 12.3.3c.4-.4 1-.4 1.4 0 .4.4.4 1 0 1.4L8.4 7z"/>
  </defs>
  <clipPath id="b">
    <use overflow="visible" xlink:href="#a"/>
  </clipPath>
  <g fill="#d32a33" clip-path="url(#b)">
    <defs>
      <path id="c" d="M-5-5h24v24H-5z"/>
    </defs>
    <clipPath id="d">
      <use overflow="visible" xlink:href="#c"/>
    </clipPath>
    <g clip-path="url(#d)">
      <defs>
        <path id="e" d="M0 0h14v14H0z"/>
      </defs>
      <clipPath id="f">
        <use overflow="visible" xlink:href="#e"/>
      </clipPath>
      <path d="M-5-5h24v24H-5z" clip-path="url(#f)"/>
    </g>
  </g>
</svg>
