<?xml version="1.0" encoding="utf-8"?>
<!-- Generator: Adobe Illustrator 22.1.0, SVG Export Plug-In . SVG Version: 6.00 Build 0)  -->
<svg version="1.1" id="Layer_1" xmlns="http://www.w3.org/2000/svg" xmlns:xlink="http://www.w3.org/1999/xlink" x="0px" y="0px"
	 viewBox="0 0 76.7 100.3" style="enable-background:new 0 0 76.7 100.3;" xml:space="preserve">
<style type="text/css">
	.st0{fill:#fff;stroke:#fff;}
	.st1{fill:#fff;stroke:#fff;stroke-width:4;stroke-miterlimit:10;}
</style>
<g>
	<g>
		<g>
			<path class="st0" d="M55.9,67.5h-4c0-0.4-0.2-0.6-0.3-0.7l-26.7,0c0,0-0.2,0.3-0.2,0.7h-4c0-2.6,1.9-4.7,4.2-4.7h26.7
				C54,62.9,55.9,65,55.9,67.5z"/>
		</g>
		<g>
			<path class="st0" d="M37,64.8h-4V50c-12.2-7.6-19.8-21.3-19.8-36c0-4.3,0.6-8.5,1.9-12.6L15.5,0h45.6l0.4,1.4
				c1.2,4.1,1.9,8.3,1.9,12.6c0,14.7-7.6,28.4-19.8,36v10.8h-4V47.7l1-0.6C52.2,40.3,59.4,27.6,59.4,14c0-3.4-0.4-6.7-1.3-10H18.5
				c-0.9,3.2-1.3,6.6-1.3,10c0,13.6,7.2,26.3,18.8,33.1l1,0.6V64.8z"/>
		</g>
		<g>
			<path class="st0" d="M52,42c-0.8,0-1.6-0.5-1.9-1.4c-0.4-1,0.2-2.2,1.2-2.5c12-4.1,20.3-15.9,21.2-29.8H60.7c-1.1,0-2-0.9-2-2
				s0.9-2,2-2h15.9l0,2C76.5,22.7,66.9,37,52.7,41.9C52.5,41.9,52.3,42,52,42z"/>
		</g>
		<g>
			<path class="st0" d="M24.6,42c-0.2,0-0.4,0-0.6-0.1C9.8,37,0.1,22.7,0,6.3l0-2h15.9c1.1,0,2,0.9,2,2s-0.9,2-2,2H4.1
				C4.9,22.1,13.3,34,25.3,38.1c1,0.4,1.6,1.5,1.2,2.5C26.2,41.5,25.4,42,24.6,42z"/>
		</g>
		<g>
			<path class="st0" d="M64.6,100.3H12.1V89.8h52.4V100.3z M16.1,96.3h44.4v-2.5H16.1V96.3z"/>
		</g>
		<g>
			<path class="st0" d="M62.8,93.8H13.9V70.7h48.9V93.8z M17.9,89.8h40.9V74.7H17.9V89.8z"/>
		</g>
		<rect x="22.3" y="79.1" class="st1" width="32" height="6.3"/>
		<g>
			<path class="st0" d="M64.6,100.3H12.1V89.8h52.4V100.3z M16.1,96.3h44.4v-2.5H16.1V96.3z"/>
		</g>
		<g>
			<path class="st0" d="M62.8,93.8H13.9V70.7h48.9V93.8z M17.9,89.8h40.9V74.7H17.9V89.8z"/>
		</g>
	</g>
	<g>
		<path stroke="#fff" fill="#fff"  d="M32.7,4v10.8l-0.2-0.1l-2.1-1.4l-2.1,1.4l-0.2,0.1V4h2.4H32.7 M36.7,0h-6.4h-6.4V22l6.4-4l6.4,4V0L36.7,0z"/>
	</g>
</g>
</svg>
