<?xml version="1.0" encoding="utf-8"?>
<!-- Generator: Adobe Illustrator 22.1.0, SVG Export Plug-In . SVG Version: 6.00 Build 0)  -->
<svg version="1.1" id="Layer_1" xmlns="http://www.w3.org/2000/svg" xmlns:xlink="http://www.w3.org/1999/xlink" x="0px" y="0px"
	 viewBox="0 0 107.9 99.9" style="enable-background:new 0 0 107.9 99.9;" xml:space="preserve">
<style type="text/css">
	.st0{fill:#fff;}
	.st1{fill:#fff;}
</style>
<g>
	<g>
		<path class="st0" d="M81.5,40.1c-0.2,0.8-0.5,1.5-0.9,2.2c2.9,3.7,5,7.9,6.2,12.4l0.2,0.8l-1.3,2.3c0.4,2.1,0.5,4.3,0.5,6.6
			c-0.6,18-15.5,32-33.5,31.4c-6.7-0.2-13-2.5-18-6.2l-1.6,3.1l-2.8-6.9c-5.2-5.5-8.5-12.7-9-20.7l-1.8-2.4l0-0.7
			c0.3-7.6,3.1-14.7,7.8-20.4c-0.4-0.9-0.6-1.8-0.7-2.7c-5.6,6.2-9,14.3-9.3,23.3c-0.7,20.1,15.2,37,35.3,37.6c0.4,0,0.8,0,1.2,0
			c0,0,0,0,0,0c19.8,0,35.8-15.5,36.5-35.3c0.3-9.4-3-18-8.6-24.7L81.5,40.1z"/>
		<path d="M30.1,85.8l2.8,6.9l1.6-3.1C32.9,88.5,31.5,87.2,30.1,85.8z"/>
		<g>
			<path fill="#fff" d="M79.5,43.8c-0.5,0.6-1,1.1-1.6,1.7c2.1,2.9,3.7,6.1,4.7,9.5l-2.5,4.3l-3.1,5.8L75,60.6l-4.6,2.9l-3.2-6.2l-3.7,4.4
				l-3.1-1.3l3.5-0.7l-7.1-4.2c-0.7,0.2-1.4,0.4-2.1,0.5l-0.4-0.3l-0.4,0.3c-2.5-0.5-5-1.2-7.7-2.2l0.3,2.4l2.5,0.5l-2.7,0.6
				l-3.3,8.2l2.6,4.9l3.6,0.3l1,7.1l3,7.5l5-3l7-15.7l-0.8-0.4l0.4,0.1l1.5-1.8l2.4,4.7l4.4-2.8l3.5,7.6l6.8-12.8l2-3.4
				C84.7,52.7,82.6,47.9,79.5,43.8z M55.2,79.4l-1.1-2.6L52.8,67l-4.6-0.3l-0.7-1.4l1.8-4.5l1.6-0.3l2.1,1.5l3.8-0.8l1,6.5l2.3,1
				L55.2,79.4z"/>
			<path fill="#fff" d="M29.6,66.1l-3.2-4.3l0.3-0.9l3.9-0.2l9.5-8l-1.3-1.7c-0.1-0.1-0.3-0.1-0.4-0.2c-2.7-1.3-4.9-2.5-6.7-3.7l-0.3,0.5
				L31,46.8l0.1-0.2c-1.3-1-2.4-2.1-3.1-3.3c-0.3-0.5-0.6-1.1-0.9-1.6c-4.7,5.7-7.5,12.8-7.8,20.4l0,0.7l1.8,2.4l0.1,0.2l7,3.5
				l-1.2,2.6l2.9,6.2l-0.3,7.2l0.4,1c1.3,1.4,2.8,2.7,4.4,3.8l9-17L31.9,61.4L29.6,66.1z M23.8,57.8c0.6-3.3,1.8-6.5,3.5-9.5
				l1.9,3.3c0.4,0.7,1.3,1.2,2.1,1.2c0,0,0,0,0,0c0.8,0,1.6-0.4,2.1-1.1l0.4-0.7l0.8,1l-5.6,4.7L25.6,57
				C24.9,57,24.3,57.3,23.8,57.8z M33.1,68.2l5.4,5.2l-4.7,8.9l0.2-4.9c0-0.4,0-0.8-0.2-1.2l-2.3-4.8l0.4-0.8l1.6,0.8l-1.2-1.7
				L33.1,68.2z"/>
		</g>
		<path class="st0" d="M53.7,0L0,21.3l26.3,9.9l0.1,6.4c0,0.4,0,0.9,0.1,1.3c0.1,1,0.3,1.9,0.7,2.7c0.2,0.6,0.5,1.1,0.9,1.6
			c0.8,1.1,1.8,2.2,3.1,3.3c0.2,0.2,0.4,0.3,0.6,0.5c1.7,1.2,3.9,2.5,6.7,3.7c0.1,0.1,0.3,0.1,0.4,0.2c2.6,1.2,5,2.2,7.4,3
			c2.7,0.9,5.2,1.6,7.7,2.2l0.4-0.3l0.4,0.3c0.7-0.2,1.4-0.3,2.1-0.5c4.1-1.1,8.5-2.8,13.2-5.1c3.5-1.7,6-3.3,7.9-4.9
			c0.6-0.5,1.1-1.1,1.6-1.7c0.4-0.5,0.7-1,1-1.5c0.4-0.7,0.7-1.4,0.9-2.2l0-0.3l-0.1-9.1l0-1.6l-0.7-0.3l-0.9-0.4l-1.9-0.7l-0.2,0.1
			l-7.5,3L65.1,33l-9,3.6l0,0l-2,0.8l0,0l0,0l-2-0.7l0,0l-2.7-1l-3.6-1.4l-3.5-1.3L40,32.1l-1.2-0.4l-2-0.7l-6.6-2.5l-2-0.8l-2-0.8
			l-15.1-5.7L53.8,4.3l43,16.1l-13.3,5.3l1.9,0.7l0,0.7l0,2.1l22.5-8.9L53.7,0z M56.1,40.8L70,35.3l4.6-1.8l3.3-1.3l0,3.9l0,0.9
			c0,0.7,0,1.3-0.2,2c-0.1,0.5-0.4,1.1-0.8,1.7c-0.4,0.5-0.9,1.1-1.5,1.7c-1.4,1.3-3.6,2.7-7.1,4.4c-4.3,2.1-8.3,3.7-12,4.7
			c0,0,0,0,0,0l-0.1-5.4l0-4.3L56.1,40.8L56.1,40.8z M32.5,33.5l2.6,1l2.1,0.8l0.7,0.2l1.4,0.5l9.2,3.4l3.7,1.4l0,3.2l0.1,7.5
			c-1.1-0.3-2.2-0.6-3.4-1c-2.1-0.7-4.4-1.6-6.7-2.6c-0.7-0.3-1.3-0.6-2-0.9c-0.9-0.4-1.6-0.8-2.4-1.2c-2-1.1-3.5-2-4.6-2.9
			c-1.3-1.1-2-2-2.4-2.9c-0.3-0.7-0.4-1.3-0.4-1.9c0-0.2,0-0.5,0-0.7l0-2.4l0-2.5L32.5,33.5z"/>
	</g>
	<path class="st0" d="M60.9,14.5c-0.8-2-3.5-3.3-7-3.3l-0.1,0c-3.5,0-6.2,1.4-7,3.5c-0.2,0.4-0.2,0.8-0.2,1.3c0,0.2,0,0.5,0.1,0.7
		c0.2,0.7,0.6,1.4,1.2,2c0.9,0.9,2.3,1.5,4,1.8c0,0,0,0,0,0c0.6,0.1,1.2,0.1,1.9,0.1l0.1,0l0,0l0,0c0.7,0,1.3-0.1,2-0.2c0,0,0,0,0,0
		c0.4-0.1,0.8-0.2,1.2-0.3c1.2-0.4,2.2-0.9,2.9-1.6c0.4-0.4,0.7-0.8,0.9-1.3c0.1-0.2,0.2-0.5,0.2-0.7c0-0.2,0.1-0.5,0.1-0.7
		C61.2,15.4,61.1,14.9,60.9,14.5z M53.8,18.6L53.8,18.6L53.8,18.6L53.8,18.6z M55.7,16.3c-0.5,0.1-1.1,0.2-1.8,0.2l0,0c0,0,0,0,0,0
		v0c0,0,0,0,0,0v0c-0.6,0-1.1-0.1-1.5-0.1c-0.1,0-0.2,0-0.3,0c-0.6-0.1-1-0.3-1.2-0.5l1.9-0.6c0.1,0,0.3,0,0.4,0l1.3,0l2.4,0.6
		C56.7,16,56.3,16.2,55.7,16.3z"/>
	<g>
		<polygon class="st1" points="53.8,18.6 53.8,18.6 53.8,18.6 		"/>
		<path class="st1" d="M85.5,44l-0.1-14.8l0-2.1l0-0.7l-1.9-0.7L81.7,25l-2-0.8l-2.1-0.8l-13.4-5l-3.3-1.2c-0.2,0.5-0.5,0.9-0.9,1.3
			c-0.7,0.7-1.7,1.2-2.9,1.6l20.6,7.7l0.2,0.1l1.9,0.7l0.9,0.4l0.7,0.3l0,1.6l0.1,9.3l0,4.1c-2.1,0.8-3.6,2.5-3.6,4.6v8.7h11.9v-8.7
			C89.8,46.5,88,44.6,85.5,44z"/>
	</g>
</g>
</svg>
