<svg xmlns="http://www.w3.org/2000/svg" id="Layer_1" viewBox="0 0 107.9 99.9">
  <style>
    .st0,.st1{fill:#fff}
  </style>
  <path d="M81.5 40.1c-.2.8-.5 1.5-.9 2.2 2.9 3.7 5 7.9 6.2 12.4l.2.8-1.3 2.3c.4 2.1.5 4.3.5 6.6-.6 18-15.5 32-33.5 31.4-6.7-.2-13-2.5-18-6.2l-1.6 3.1-2.8-6.9c-5.2-5.5-8.5-12.7-9-20.7l-1.8-2.4V62c.3-7.6 3.1-14.7 7.8-20.4-.4-.9-.6-1.8-.7-2.7-5.6 6.2-9 14.3-9.3 23.3-.7 20.1 15.2 37 35.3 37.6h1.2a36.4 36.4 0 0 0 36.5-35.3c.3-9.4-3-18-8.6-24.7l-.2.3z" class="st0"/>
  <path d="M30.1 85.8l2.8 6.9 1.6-3.1c-1.6-1.1-3-2.4-4.4-3.8z"/>
  <g fill="#fff">
    <path d="M79.5 43.8c-.5.6-1 1.1-1.6 1.7 2.1 2.9 3.7 6.1 4.7 9.5l-2.5 4.3-3.1 5.8-2-4.5-4.6 2.9-3.2-6.2-3.7 4.4-3.1-1.3 3.5-.7-7.1-4.2c-.7.2-1.4.4-2.1.5l-.4-.3-.4.3c-2.5-.5-5-1.2-7.7-2.2l.3 2.4 2.5.5-2.7.6-3.3 8.2 2.6 4.9 3.6.3 1 7.1 3 7.5 5-3 7-15.7-.8-.4.4.1 1.5-1.8 2.4 4.7 4.4-2.8 3.5 7.6 6.8-12.8 2-3.4c-.7-5.1-2.8-9.9-5.9-14zM55.2 79.4l-1.1-2.6-1.3-9.8-4.6-.3-.7-1.4 1.8-4.5 1.6-.3L53 62l3.8-.8 1 6.5 2.3 1-4.9 10.7zM29.6 66.1l-3.2-4.3.3-.9 3.9-.2 9.5-8-1.3-1.7c-.1-.1-.3-.1-.4-.2-2.7-1.3-4.9-2.5-6.7-3.7l-.3.5-.4-.8.1-.2c-1.3-1-2.4-2.1-3.1-3.3-.3-.5-.6-1.1-.9-1.6a34.1 34.1 0 0 0-7.8 20.4v.7l1.8 2.4.1.2 7 3.5-1.2 2.6 2.9 6.2-.3 7.2.4 1c1.3 1.4 2.8 2.7 4.4 3.8l9-17-11.5-11.3-2.3 4.7zm-5.8-8.3c.6-3.3 1.8-6.5 3.5-9.5l1.9 3.3c.4.7 1.3 1.2 2.1 1.2s1.6-.4 2.1-1.1l.4-.7.8 1-5.6 4.7-3.4.3c-.7 0-1.3.3-1.8.8zm9.3 10.4l5.4 5.2-4.7 8.9.2-4.9c0-.4 0-.8-.2-1.2l-2.3-4.8.4-.8 1.6.8-1.2-1.7.8-1.5z"/>
  </g>
  <path d="M53.7 0L0 21.3l26.3 9.9.1 6.4c0 .4 0 .9.1 1.3.1 1 .3 1.9.7 2.7.2.6.5 1.1.9 1.6.8 1.1 1.8 2.2 3.1 3.3.2.2.4.3.6.5 1.7 1.2 3.9 2.5 6.7 3.7.1.1.3.1.4.2 2.6 1.2 5 2.2 7.4 3 2.7.9 5.2 1.6 7.7 2.2l.4-.3.4.3c.7-.2 1.4-.3 2.1-.5 4.1-1.1 8.5-2.8 13.2-5.1 3.5-1.7 6-3.3 7.9-4.9.6-.5 1.1-1.1 1.6-1.7.4-.5.7-1 1-1.5.4-.7.7-1.4.9-2.2v-.3l-.1-9.1v-1.6l-.7-.3-.9-.4-1.9-.7-.2.1-7.5 3-5.1 2.1-9 3.6-2 .8-2-.7-2.7-1-3.6-1.4-3.5-1.3-2.3-.9-1.2-.4-2-.7-6.6-2.5-2-.8-2-.8-15.1-5.7L53.8 4.3l43 16.1-13.3 5.3 1.9.7v2.8l22.5-8.9L53.7 0zm2.4 40.8L70 35.3l4.6-1.8 3.3-1.3V37c0 .7 0 1.3-.2 2-.1.5-.4 1.1-.8 1.7-.4.5-.9 1.1-1.5 1.7-1.4 1.3-3.6 2.7-7.1 4.4-4.3 2.1-8.3 3.7-12 4.7l-.1-5.4v-4.3l-.1-1zm-23.6-7.3l2.6 1 2.1.8.7.2 1.4.5 9.2 3.4 3.7 1.4V44l.1 7.5c-1.1-.3-2.2-.6-3.4-1a83 83 0 0 1-6.7-2.6c-.7-.3-1.3-.6-2-.9-.9-.4-1.6-.8-2.4-1.2-2-1.1-3.5-2-4.6-2.9-1.3-1.1-2-2-2.4-2.9-.3-.7-.4-1.3-.4-1.9v-5.6l2.1 1z" class="st0"/>
  <path d="M60.9 14.5c-.8-2-3.5-3.3-7-3.3h-.1c-3.5 0-6.2 1.4-7 3.5-.2.4-.2.8-.2 1.3 0 .2 0 .5.1.7.2.7.6 1.4 1.2 2 .9.9 2.3 1.5 4 1.8.6.1 1.2.1 1.9.1h.1c.7 0 1.3-.1 2-.2l1.2-.3c1.2-.4 2.2-.9 2.9-1.6a3.8 3.8 0 0 0 1.1-2c0-.2.1-.5.1-.7 0-.4-.1-.9-.3-1.3zm-7.1 4.1zm1.9-2.3c-.5.1-1.1.2-1.8.2-.6 0-1.1-.1-1.5-.1h-.3c-.6-.1-1-.3-1.2-.5l1.9-.6H54.5l2.4.6c-.2.1-.6.3-1.2.4z" class="st0"/>
  <g>
    <path d="M53.8 18.6zM85.5 44l-.1-14.8v-2.8l-1.9-.7-1.8-.7-2-.8-2.1-.8-13.4-5-3.3-1.2c-.2.5-.5.9-.9 1.3-.7.7-1.7 1.2-2.9 1.6l20.6 7.7.2.1 1.9.7.9.4.7.3v1.6l.1 9.3v4.1c-2.1.8-3.6 2.5-3.6 4.6v8.7h11.9v-8.7c0-2.4-1.8-4.3-4.3-4.9z" class="st1"/>
  </g>
</svg>
