<?xml version="1.0" encoding="utf-8"?>
<!-- Generator: Adobe Illustrator 22.1.0, SVG Export Plug-In . SVG Version: 6.00 Build 0)  -->
<svg version="1.1" id="Layer_1" xmlns="http://www.w3.org/2000/svg" xmlns:xlink="http://www.w3.org/1999/xlink" x="0px" y="0px"
	 viewBox="0 0 40 48" style="enable-background:new 0 0 40 48;" xml:space="preserve">
<style type="text/css">
	.st0{clip-path:url(#SVGID_2_);
		fill: #fff}
</style>
<g>
	<defs>
		<path id="SVGID_1_" d="M36.3,43.8c-1.7,0.4-3.4,0.8-5.1,1.1c0.5-2.3,1.8-5.8,4.8-10.3c0.1,0.3,1.6,7,1.6,7
			C37.8,42.6,37.2,43.5,36.3,43.8z M11,45.4c-0.4-2.7-1.8-6.9-5.8-12.6c0.9-1.4,3.9-2.1,4.4-2.3c0.9,4,5.3,7.1,10.5,7.1
			s9.6-3.1,10.5-7.1c0.4,0.2,3.5,0.9,4.4,2.3c-3.9,5.7-5.3,9.9-5.8,12.5C22.9,46.2,16.9,46.2,11,45.4z M2.4,41.7
			c0,0,1.5-6.8,1.6-7.1c3.1,4.6,4.4,8.1,4.9,10.4c-1.7-0.3-3.5-0.7-5.2-1.2C2.7,43.6,2.2,42.6,2.4,41.7z M14.1,23.7
			c1.6,1.9,3.6,3.2,5.9,3.2s4.3-1.3,5.9-3.2c0.1,2.2,1.2,4.1,2.8,5.5c-0.3,3.5-4,6.3-8.6,6.3s-8.4-2.8-8.6-6.3
			C12.9,27.9,14,25.9,14.1,23.7z M11.2,8.4C12,3.5,15.8,3,15.9,2.9C17.3,2.3,18.7,2,20,2c4.1,0,5.7,3.2,5.7,3.3
			c0.5,0.8,1.2,0.5,1.2,0.5c0.6,0,1.1,1.1,1.4,2.1l0,0c-0.4,0-0.7,0.2-0.9,0.5c-0.7,1.2-1.8,2-2.7,2.4c0-1.1-0.3-2.2-0.3-2.5
			C24.3,8,24,7.7,23.7,7.6c-0.4-0.1-0.8,0.1-1,0.4c-1.8,2.3-5.2,2.8-7.7,2.8c-1.9,0-3.4-0.3-3.4-0.3c-0.2,0-0.3,0-0.5,0
			C11.1,9.7,11.2,8.9,11.2,8.4z M12.3,14.1v-1.5c2.2,0.3,7.1,0.5,10.4-2c0,0.5,0,1-0.2,1.3c-0.2,0.3-0.2,0.8,0.1,1.1
			c0.2,0.3,0.6,0.5,1,0.4c0.1,0,2.1-0.5,3.8-2l0.2,2.7c0,4.1-3.6,10.8-7.7,10.8C15.9,24.9,12.3,18.2,12.3,14.1z M39.6,41.2L38.2,35
			c-0.7-3-2.9-5.3-5.8-6c-2.7-0.7-4.5-3.1-4.5-5.8v-2.4c0.9-1.7,1.5-3.5,1.7-5.2c1-0.9,1.3-3.3,0.8-7.5c-0.1-0.4-0.8-4-3.2-4.3
			C26.4,2.6,24.2,0,20,0c-1.5,0-3.1,0.3-4.8,1c-0.8,0.2-4.9,1.4-5.9,7c-0.1,0.6-1,5.5,1.2,7.9c0.3,1.5,0.8,3.2,1.6,4.7V23
			c0,2.7-1.9,5.1-4.5,5.8c-2.9,0.8-5.2,3.1-5.8,6L0.4,41c-0.4,2,0.8,3.9,2.7,4.5C8.5,47.2,14,48,19.6,48s11.4-0.8,17.2-2.3
			C38.8,45.2,40,43.2,39.6,41.2z"/>
	</defs>
	<clipPath id="SVGID_2_">
		<use xlink:href="#SVGID_1_"  style="overflow:visible;"/>
	</clipPath>
	<rect x="-4.7" y="-5" class="st0" width="49.4" height="58"/>
</g>
</svg>
