<?xml version="1.0" encoding="utf-8"?>
<!-- Generator: Adobe Illustrator 22.1.0, SVG Export Plug-In . SVG Version: 6.00 Build 0)  -->
<svg version="1.1" id="Layer_1" xmlns="http://www.w3.org/2000/svg" xmlns:xlink="http://www.w3.org/1999/xlink" x="0px" y="0px"
	 viewBox="0 0 40 48" style="enable-background:new 0 0 40 48;" xml:space="preserve">
<style type="text/css">
	.st0{clip-path:url(#SVGID_2_);fill: #fff}
	.st1{fill:none;stroke:#fff;stroke-width:2;stroke-linecap:square;stroke-miterlimit:10;}
</style>
<g>
	<defs>
		<path id="SVGID_1_" d="M37.2,41.2c-5,3.2-11,4.8-17.2,4.8S7.9,44.3,2.8,41.2v-6c0-3.1,2.7-5.7,6.1-6.1c0.3,1.6,1.4,3.2,3.7,5.2
			c0.2,0.2,0.4,0.3,0.7,0.3c0.1,0,0.2,0,0.3-0.1l6.4-2.3l6.4,2.3c0.1,0,0.2,0.1,0.3,0.1c0.2,0,0.5-0.1,0.7-0.3
			c2.2-2,3.4-3.6,3.7-5.2c3.4,0.4,6.1,2.9,6.1,6.1V41.2z M13,28.3c0.9,1.4,2.5,2.4,3.9,3l-3.4,1.2C12.1,31.1,11.3,30,11,29
			C11.7,28.9,12.4,28.7,13,28.3z M13.7,4.2c0,0,2.7-2.2,6.4-2.2c0.7,0,1.5,0.1,2.1,0.2c1.4,0.4,3.6,1.5,3.8,2.5
			c0.1,0.4,0.4,0.7,0.8,0.8c0.1,0,1.3,0.2,2.1,1.5c0.6,0.9,0.8,2.2,0.6,3.8c-1-2.1-2.7-4.3-5.6-4.3c-0.7,0-1.4,0.1-2.1,0.4
			c-0.3,0.1-0.7,0.3-1.1,0.5c-0.8,0.5-3.4,2-5.7,2.3c-1.5,0.2-2.9,0.8-3.9,1.7C11.1,9.2,11.5,6,13.7,4.2z M25.8,18.8
			c-2.1-3.5-5.3-3.6-5.9-3.6s-3.8,0-5.9,3.6c-0.3,0.5-0.9,0.5-1.2,0.1c0-0.1-0.1-0.1-0.2-0.1c-0.6-1.4-0.9-2.9-1-4.5
			c0.1-0.2,0.2-0.4,0.3-0.6c0.7-1.1,1.9-1.8,3.5-2c2.6-0.4,5.4-1.9,6.5-2.6c0.3-0.2,0.5-0.3,0.7-0.4c0.5-0.2,1-0.3,1.5-0.3
			c2.8,0,4.1,3.5,4.5,5.3c0,1.7-0.3,3.3-0.9,4.8c-0.2,0-0.4,0.1-0.5,0.3C26.6,19.3,26.1,19.3,25.8,18.8z M13.4,21.2
			c0.9,0,1.7-0.5,2.2-1.4c1.4-2.4,3.5-2.5,4.1-2.6c0.6,0,2.9,0.2,4.3,2.6c0.5,0.9,1.5,1.4,2.5,1.4c-1.4,2-3.3,4-6.7,5
			C16.6,25.2,14.8,23.3,13.4,21.2z M20,30.2c-1.5-0.4-4.9-1.6-5.5-3.5c0.2-0.3,0.3-0.6,0.4-0.9c1.2,1,2.7,1.8,4.7,2.3
			c0.1,0,0.2,0,0.3,0s0.2,0,0.3,0c2-0.6,3.7-1.4,5-2.4c0.1,0.4,0.2,0.7,0.4,1C24.9,28.6,21.5,29.8,20,30.2z M29,29
			c-0.3,1-1.1,2.1-2.5,3.5L23,31.3c1.5-0.6,3.1-1.6,3.9-3C27.6,28.7,28.3,28.9,29,29z M30.2,27.1c-1.7,0.1-3.6-1.1-3.3-3.1
			c1-1.1,1.7-2.3,2.3-3.4c0.2-0.3,0.2-0.6,0-0.9c0.6-1.4,1-2.9,1.2-4.5c0.1-0.1,0.2-0.2,0.2-0.4c1.3-3.9,1.3-6.9,0-9
			c-0.9-1.4-2.2-2-2.9-2.2c-1-2-4.3-3.1-5-3.4C21.9,0.1,21,0,20.1,0c-4.4,0-7.5,2.5-7.6,2.7c-4.6,3.8-3,11.4-3,11.8
			c0,0.1,0.1,0.2,0.1,0.2c0.1,1.9,0.6,3.7,1.3,5.4v0.5c0,0.2,0,0.4,0.1,0.6c0.5,0.8,1.1,1.9,2.1,2.9c0.3,1.8-1.2,3.1-3.3,3
			c-4.9,0-9,3.6-9,8.1v6.5c0,0.3,0.2,0.7,0.4,0.8C6.8,46.1,13.2,48,20,48s13.3-1.9,18.7-5.4c0.3-0.2,0.4-0.5,0.4-0.8v-6.5
			C39.2,30.7,35.1,27.1,30.2,27.1z"/>
	</defs>
	<clipPath id="SVGID_2_">
		<use xlink:href="#SVGID_1_"  style="overflow:visible;"/>
	</clipPath>
	<rect x="-4.2" y="-5" class="st0" width="48.3" height="58"/>
</g>
<path class="st1" d="M19.6,17c0,1.9-0.9,3.3-2.8,4.3s-3.5,0.8-4.8-0.6"/>
<path class="st1" d="M19.6,17c0,1.9,0.9,3.3,2.8,4.3s3.5,0.8,4.8-0.6"/>
</svg>
