<?xml version="1.0" encoding="utf-8"?>
<!-- Generator: Adobe Illustrator 22.1.0, SVG Export Plug-In . SVG Version: 6.00 Build 0)  -->
<svg version="1.1" id="Layer_1" xmlns="http://www.w3.org/2000/svg" xmlns:xlink="http://www.w3.org/1999/xlink" x="0px" y="0px"
	 viewBox="0 0 65.7 98.1" style="enable-background:new 0 0 65.7 98.1;" xml:space="preserve">
<style type="text/css">
	.st0{fill:#012742;}
</style>
<g>
	<g>
		<path class="st0" d="M48.6,74.4H17.1l-2-1.9c-0.2-3.7-1.1-6.6-2.3-8.3C0.3,48.3,0,33,0,32.8C0,14.7,14.7,0,32.8,0
			c18.1,0,32.8,14.7,32.8,32.8c0,0.1-0.3,15.4-12.8,31.4c-1.2,1.6-2.1,4.6-2.3,8.3L48.6,74.4z M18.9,70.4h27.9
			c0.5-3.7,1.5-6.5,3-8.5c11.6-15,12-28.9,12-29C61.7,16.9,48.7,4,32.8,4C16.9,4,4,16.9,4,32.8c0,0.1,0.3,14.1,11.9,29
			C17.5,63.9,18.5,66.7,18.9,70.4z"/>
	</g>
	<g>
		<g>
			<rect x="12.8" y="70.8" class="st0" width="40.1" height="4"/>
		</g>
		<g>
			<rect x="12.8" y="78.6" class="st0" width="40.1" height="4"/>
		</g>
		<g>
			<rect x="12.8" y="86.3" class="st0" width="40.1" height="4"/>
		</g>
		<g>
			<rect x="18.2" y="94.1" class="st0" width="29.2" height="4"/>
		</g>
		<g>
			<rect x="15.4" y="73.2" class="st0" width="4" height="14.8"/>
		</g>
	</g>
</g>
<g>
	<polygon class="st0" points="42.1,37.7 38.1,37.7 38.1,35.7 32.8,26 27.6,35.7 27.6,37.7 23.6,37.7 23.6,34.7 32.8,17.6 42.1,34.7 
			"/>
</g>
<path class="st0" d="M23.3,35.7v14.5v4.4v20.2h19V54.7v-4.4V35.7H23.3z M38.3,56v14.9h-3.5V56.6v-4V39.7h-4v12.8v4v14.4h-3.5V56
	v-4.1V39.7h11v12.1V56z"/>
</svg>
