<?xml version="1.0" encoding="utf-8"?>
<!-- Generator: Adobe Illustrator 22.1.0, SVG Export Plug-In . SVG Version: 6.00 Build 0)  -->
<svg version="1.1" id="Layer_1" xmlns="http://www.w3.org/2000/svg" xmlns:xlink="http://www.w3.org/1999/xlink" x="0px" y="0px"
	 viewBox="0 0 104.4 100.4" style="enable-background:new 0 0 104.4 100.4;" xml:space="preserve">
<style type="text/css">
	.st0{fill:#fff;}
	.st1{fill:#fff;}
	.st2{fill:#fff;}
</style>
<g>
	<g>
		<path class="st0" d="M45.2,94.9c-0.9,0-1.7-0.6-1.9-1.6l-1.7-7.5c-0.2-1.1,0.4-2.1,1.5-2.4c1.1-0.2,2.1,0.4,2.4,1.5l1.7,7.5
			c0.2,1.1-0.4,2.1-1.5,2.4C45.5,94.9,45.3,94.9,45.2,94.9z"/>
	</g>
	<g>
		<path class="st0" d="M51.6,94.9c-0.1,0-0.3,0-0.4-0.1c-1.1-0.2-1.7-1.3-1.5-2.4l1.7-7.5c0.2-1.1,1.3-1.8,2.4-1.5
			c1.1,0.2,1.7,1.3,1.5,2.4l-1.7,7.5C53.3,94.3,52.5,94.9,51.6,94.9z"/>
	</g>
	<rect x="43" y="92.2" class="st1" width="11.1" height="8.3"/>
	<g>
		<g>
			<g>
				<path class="st0" d="M35.7,80.1c-0.4,0-0.9-0.2-1.3-0.5c-16-13.2-24.3-30.4-22.2-46C14.1,15.1,30.4,0,48.5,0c0,0,0,0,0,0
					c1.1,0,2,0.9,2,2s-0.9,2-2,2c0,0,0,0,0,0C32.4,4,17.9,17.5,16.1,34.1C14.3,48.4,22,64.3,36.9,76.6c0.9,0.7,1,2,0.3,2.8
					C36.8,79.9,36.2,80.1,35.7,80.1z"/>
			</g>
			<g>
				<path class="st0" d="M61.2,80.5c-0.6,0-1.1-0.2-1.5-0.7c-0.7-0.8-0.6-2.1,0.2-2.8c15.5-13.2,23-28.4,21.1-42.7
					C79.2,17.5,64.7,4,48.5,4c-1.1,0-2-0.9-2-2s0.9-2,2-2C66.7,0,83,15.1,84.9,33.7C87,49.4,79,65.9,62.5,80
					C62.1,80.3,61.6,80.5,61.2,80.5z"/>
			</g>
			<g>
				<path class="st0" d="M39.2,79.9c-0.6,0-1.1-0.2-1.5-0.7C26.4,65.9,21.3,50.5,23.4,36C25.4,21.9,34,9.2,47.5,0.3
					c0.9-0.6,2.2-0.4,2.8,0.6c0.6,0.9,0.4,2.2-0.6,2.8c-12.5,8.2-20.4,19.9-22.3,32.9c-1.9,13.4,2.8,27.7,13.4,40
					c0.7,0.8,0.6,2.1-0.2,2.8C40.2,79.7,39.7,79.9,39.2,79.9z"/>
			</g>
			<g>
				<path class="st0" d="M51.7,79.6c-0.2,0-0.4,0-0.5-0.1c-1.1-0.3-1.7-1.4-1.4-2.5c6.4-23,6-46.2-1.2-69c-7.6,22.7-8,45.9-1.3,68.9
					c0.3,1.1-0.3,2.2-1.4,2.5c-1.1,0.3-2.2-0.3-2.5-1.4C35.9,52.4,37,26.6,46.8,1.3c0.3-0.8,1-1.3,1.9-1.3c0.8,0,1.6,0.5,1.9,1.3
					c9.1,25.3,10.2,51.2,3.1,76.8C53.4,79,52.6,79.6,51.7,79.6z"/>
			</g>
			<g>
				<path class="st0" d="M57.8,79.8c-0.5,0-0.9-0.2-1.3-0.5c-0.8-0.7-1-2-0.2-2.8C66.8,64,71.4,50.2,69.5,36.6
					c-1.8-12.9-9.6-24.6-22-32.9c-0.9-0.6-1.2-1.9-0.5-2.8c0.6-0.9,1.9-1.2,2.8-0.5C63,9.3,71.4,22,73.4,36
					c2.1,14.5-3,29.8-14.1,43.1C58.9,79.6,58.4,79.8,57.8,79.8z"/>
			</g>
		</g>
		<g>
			<path class="st0" d="M53.6,87.4H43.5c-0.5,0-1-0.2-1.4-0.5l-7.9-7.4c-0.6-0.6-0.8-1.4-0.5-2.2c0.3-0.8,1-1.3,1.9-1.3h26
				c0.8,0,1.6,0.5,1.9,1.3c0.3,0.8,0.1,1.6-0.5,2.2L55,86.9C54.6,87.3,54.1,87.4,53.6,87.4z M44.2,83.4h8.6l3.6-3.4H40.6L44.2,83.4z
				"/>
		</g>
	</g>
	<path class="st2" d="M44.9,33.7c0-0.2,0.1-0.4,0.1-0.7c0-2.6-2.1-4.7-4.7-4.7c-0.5,0-1,0.1-1.4,0.3c-0.7-4.7-4.7-8.3-9.6-8.3
		c-0.7,0-1.4,0.1-2.1,0.2c-2.2-2.4-5.3-3.9-8.8-3.9c-5.6,0-10.2,3.8-11.5,9c0,0,0,0,0,0c-3.9,0-7,3.1-7,7c0,0.3,0,0.7,0.1,1H44.9z"
		/>
	<path class="st2" d="M62.4,54.5h41.9c0,0,0-0.1,0-0.1c0-4.7-3.8-8.4-8.4-8.4c-0.8,0-1.6,0.1-2.3,0.3c-0.8-6-6-10.7-12.3-10.7
		C74.6,35.6,69,41.1,69,48c0,0,0,0.1,0,0.1C65.6,48.4,62.9,51.1,62.4,54.5z"/>
</g>
</svg>
