<?xml version="1.0" encoding="utf-8"?>
<!-- Generator: Adobe Illustrator 22.1.0, SVG Export Plug-In . SVG Version: 6.00 Build 0)  -->
<svg version="1.1" id="Layer_1" xmlns="http://www.w3.org/2000/svg" xmlns:xlink="http://www.w3.org/1999/xlink" x="0px" y="0px"
	 viewBox="0 0 97.2 97.5" style="enable-background:new 0 0 97.2 97.5;" xml:space="preserve">
<style type="text/css">
	.st0{fill:#FFFFFF;}
</style>
<g>
	<g>
		<g>
			<g>
				<polygon class="st0" points="0,97.5 5.3,79.7 7.3,77.6 10.1,80.4 8.8,81.8 5.9,91.6 15.7,88.7 17,87.3 19.9,90.2 17.8,92.2 				
					"/>
			</g>
			<g>
				<path class="st0" d="M74.1,16.4l7,7L18.6,85.9l-7-7L74.1,16.4L74.1,16.4z M74.1,10.8L5.9,78.9l12.7,12.7l68.1-68.1L74.1,10.8
					L74.1,10.8z"/>
			</g>
			<g>
				
					<rect x="1.6" y="48.3" transform="matrix(0.7071 -0.7071 0.7071 0.7071 -21.7306 48.0953)" class="st0" width="91.3" height="4"/>
			</g>
			<g>
				<path class="st0" d="M92.7,17.4l-2.8-2.8l3.4-3.4l-6.9-6.9l-3.4,3.4l-2.8-2.8L84,0.9C84.6,0.3,85.4,0,86.2,0h0
					c0.9,0,1.9,0.4,2.6,1.1l7.6,7.6c1.4,1.4,1.5,3.5,0.2,4.8L92.7,17.4z"/>
			</g>
			<rect x="75.5" y="7.7" transform="matrix(0.707 -0.7072 0.7072 0.707 11.899 62.0316)" class="st0" width="10.6" height="17.9"/>
		</g>
	</g>
	<g>
		<path class="st0" d="M23.7,11.7c-3.7,0-6.8,3-6.8,6.7c0,3.7,3,6.8,6.8,6.8c1,0,2-0.2,2.9-0.6l-1.1-1.1l2.8-2.8l1.2,1.2
			c0.6-1,0.9-2.2,0.9-3.4C30.5,14.7,27.5,11.7,23.7,11.7z"/>
		<path class="st0" d="M6.1,2.4v32.2h5.8l8.5,8.5v-8.5h23V2.4H6.1z M33.7,26l-2.8,2.8l-1.3-1.3c-1.7,1.1-3.7,1.7-5.8,1.7
			c-5.9,0-10.8-4.8-10.8-10.8c0-5.9,4.8-10.7,10.8-10.7c5.9,0,10.7,4.8,10.7,10.7c0,2.4-0.8,4.5-2.1,6.3L33.7,26z"/>
	</g>
	<g>
		<polygon class="st0" points="70.8,83 78.5,83 74.6,76.2 		"/>
		<path class="st0" d="M87.1,65l-8.5-8.5V65h-23v32.2h37.3V65H87.1z M83.3,91.2L80.8,87H68.4L66,91.2l-3.5-2l10.4-17.9
			c0.4-0.6,1-1,1.7-1c0.7,0,1.4,0.4,1.7,1l10.4,17.9L83.3,91.2z"/>
	</g>
</g>
</svg>
