<svg xmlns="http://www.w3.org/2000/svg" id="United_Kingdom" viewBox="0 0 54.3 36.9">
  <style>
    .st1{fill:#fff}.st2{fill:#d91616}
  </style>
  <path id="Rounded_Rectangle_7_copy" fill="#002c6e" d="M6.7 1.9h40.1c2.5 0 4.5 2 4.5 4.5v23.9c0 2.5-2 4.5-4.5 4.5H6.7c-2.5 0-4.5-2-4.4-4.5V6.4c0-2.5 2-4.5 4.4-4.5z"/>
  <path id="Rectangle_5_copy_5" d="M1.9 36.7L0 33.8 52.4 0l1.9 2.9L1.9 36.7z" class="st1"/>
  <path id="Rectangle_5_copy_5-2" d="M4.3 34.3l-1.1-1.7 46.5-30 1.1 1.7-46.5 30z" class="st2"/>
  <path id="Rectangle_5_copy_6" d="M52.2 36.9l1.9-2.9L2.1.5.2 3.4l52 33.5z" class="st1"/>
  <path id="Rectangle_5_copy_6-2" d="M49.4 34.2l1.1-1.7L4.1 2.6 2.9 4.4l46.5 29.8z" class="st2"/>
  <path id="Rectangle_5_copy_4" d="M2.3 22.9v-8.4h49v8.4h-49z" class="st1"/>
  <path id="Rectangle_5_copy_3" d="M22.6 1.9H31v32.9h-8.4V1.9z" class="st1"/>
  <path id="Rectangle_5_copy_2" d="M2.3 21.5v-5.6h49v5.6h-49z" class="st2"/>
  <path id="Rectangle_5_copy_2-2" d="M24 1.9h5.6v32.9H24V1.9z" class="st2"/>
</svg>
