<?xml version="1.0" encoding="utf-8"?>
<!-- Generator: Adobe Illustrator 22.1.0, SVG Export Plug-In . SVG Version: 6.00 Build 0)  -->
<svg version="1.1" id="Layer_1" xmlns="http://www.w3.org/2000/svg" xmlns:xlink="http://www.w3.org/1999/xlink" x="0px" y="0px"
	 viewBox="0 0 20 11" style="enable-background:new 0 0 20 11;" xml:space="preserve">
<style type="text/css">
	.st0{clip-path:url(#SVGID_2_);
		fill: #d32a33}
	.st1{clip-path:url(#SVGID_4_);
		fill: #d32a33}
</style>
<g>
	<defs>
		<path id="SVGID_1_" d="M0,5.5C0,2.5,2.5,0,5.5,0H16c2.2,0,4,1.8,4,4s-1.8,4-4,4H7.5C6.1,8,5,6.9,5,5.5S6.1,3,7.5,3H15v2H7.4
			c-0.5,0-0.5,1,0,1H16c1.1,0,2-0.9,2-2s-0.9-2-2-2H5.5C3.6,2,2,3.6,2,5.5S3.6,9,5.5,9H15v2H5.5C2.5,11,0,8.5,0,5.5z"/>
	</defs>
	<clipPath id="SVGID_2_">
		<use xlink:href="#SVGID_1_"  style="overflow:visible;"/>
	</clipPath>
	<g class="st0">
		<defs>
			<rect id="SVGID_3_" x="-50" y="-55" width="504" height="168"/>
		</defs>
		<clipPath id="SVGID_4_">
			<use xlink:href="#SVGID_3_"  style="overflow:visible;"/>
		</clipPath>
		<rect x="-5" y="-5" class="st1" width="30" height="21"/>
	</g>
</g>
</svg>
