<svg xmlns="http://www.w3.org/2000/svg" id="Layer_1" viewBox="0 0 106.7 103.1">
  <style>
    .st0{display:none}.st0,.st1{fill:#fff}
  </style>
  <path d="M46.3 83.6H7.1V19H4v67.8h47.1c-.8-1.9-2.7-3.2-4.8-3.2zM46.3 14.5H11.1v.5h37.3c-.7-.3-1.4-.5-2.1-.5z" class="st0"/>
  <path d="M46.3 79.6c1.8 0 3.5.5 4.9 1.4V19.8 19H11.1v60.7l35.2-.1zM60.4 83.6c-2.1 0-4 1.3-4.8 3.1h47.1V19h-3.1v64.7l-39.2-.1zM95.6 14.5H60.4c-.8 0-1.5.2-2.1.4h37.3v-.4z" class="st0"/>
  <path d="M55.6 19.8V81c1.4-.9 3.1-1.4 4.9-1.4h35.2V19H55.5c0 .3.1.5.1.8z" class="st0"/>
  <path d="M51.1 81c-1.4-.9-3.1-1.4-4.9-1.4H11.1V19h-4v64.7h39.2c2.1 0 4 1.3 4.8 3.1h.1V81h-.1z" class="st1"/>
  <path d="M55.5 19h-.3c0 .3-.1.5-.1.8v61.5c.1-.1.3-.2.4-.3V19.8c.1-.3 0-.5 0-.8z" class="st0"/>
  <path d="M11.1 14.5h35.2c.8 0 1.5.2 2.1.4h4.1c.3-.4.5-.8.8-1.2-1.7-2-4.2-3.3-7.1-3.3H7.1V15h4v-.5zM51.1 86.8s0 .1 0 0zM55.4 18.3c-.1.2-.1.5-.2.7h.3c0-.3 0-.5-.1-.7zM51.3 18.3c.2-1.2.6-2.3 1.2-3.3h-4.1c1.4.6 2.4 1.8 2.9 3.3zM55.6 88.9v-2c-.3.6-.4 1.3-.4 2h.4zM7.1 15h4v4h-4z" class="st1"/>
  <path d="M51.6 19.8c0-.3 0-.6-.1-.8h-.3v62c.1.1.3.2.4.3V19.8z" class="st0"/>
  <path d="M58.3 15c.6-.3 1.4-.4 2.1-.4h35.2v.4h4v-4.4H60.4a9.4 9.4 0 0 0-7.1 3.3c.3.4.6.8.8 1.2h4.2V15zM51.3 18.3c0 .2-.1.5-.1.7h.3c-.1-.3-.1-.5-.2-.7zM51.1 88.9h.4c0-.7-.1-1.4-.4-2v2zM55.6 86.9s0-.1 0 0z" class="st1"/>
  <path d="M58.3 15h-4.1c.6 1 1 2.1 1.2 3.3a5.3 5.3 0 0 1 2.9-3.3zM95.6 15h4v4h-4zM54.2 15c-.3-.4-.5-.8-.8-1.2-.3.4-.6.8-.8 1.2h1.6zM55.1 19.8c0-.3 0-.6.1-.8h-3.8c0 .3.1.5.1.8v61.5c-.1-.1-.3-.2-.4-.3v5.7h4.4V81c-.1.1-.3.2-.4.3V19.8z" class="st1"/>
  <path d="M51.5 19h3.8c0-.3.1-.5.2-.7-.2-1.2-.6-2.3-1.2-3.3h-1.7c-.6 1-1 2.1-1.2 3.3 0 .2 0 .4.1.7zM51.1 86.8c.3.7.4 1.4.4 2.1h3.6c0-.7.1-1.4.4-2v-.1h-4.4z" class="st1"/>
  <g>
    <path d="M16.5 20.1h17.3v4H16.5zM16.5 31.4h29.1v4H16.5zM16.5 39.6h29.1v4H16.5zM16.5 47.9h20.8v4H16.5z" class="st1"/>
  </g>
  <g>
    <path d="M75.7 84c-1.6 0-3.2.3-4.6.7l4.6 12.6 4.6-12.6c-1.4-.4-3-.7-4.6-.7z" class="st1"/>
    <path d="M75.7 91.5l.3-.7h-.6zM55.6 86.8s0 .1 0 0l-.1 2.1h-4.4v-2s0-.1-.1-.1H4V19h3.1v-4H0v75.8h71.2l-1.5-4H55.6zM106.7 15h-7.1v4h3.1v67.8h-21l-1.5 4h26.5z" class="st1"/>
    <path d="M73.8 86.2c1.3-.2 2.6-.2 3.9 0l-.2.6h4.3l1.2-3.3-2-.6c-3.3-1.1-7.1-1-10.4 0l-2 .6 1.2 3.3H74l-.2-.6zM75.7 91.5l-.3-.7h-4.2l4.5 12.3 4.5-12.3H76zM77.4 86.8l-1.4 4h4.2l1.5-4zM74 86.8h-4.3l1.5 4h4.2z" class="st1"/>
    <g>
      <path d="M70.6.8v5.1h10.2V.8c0-.5-.5-.8-1.1-.8h-7.9c-.7 0-1.2.4-1.2.8z" class="st1"/>
      <path d="M82.9 14.8H68.5V3.7h14.3l.1 11.1zm-10.4-4h6.3V7.7h-6.3v3.1z" class="st1"/>
    </g>
    <g>
      <path d="M99.6 19h-4v60.6H82.7v4h16.9zM60.4 79.6c-1.8 0-3.5.5-4.9 1.4v5.7h.1c.8-1.8 2.7-3.1 4.8-3.1h8.3v-4h-8.3z" class="st1"/>
      <path d="M78.7 14.8v64.8h-6.1V14.8h6.1m4-4h-14v72.8h14.1V57.3l-.1-46.5z" class="st1"/>
    </g>
  </g>
</svg>
