<svg xmlns="http://www.w3.org/2000/svg" id="Layer_1" viewBox="0 0 76.7 100.3">
  <style>
    .st0{fill:#fff;stroke:#fff}
  </style>
  <path d="M55.9 67.5h-4c0-.4-.2-.6-.3-.7H24.9s-.2.3-.2.7h-4c0-2.6 1.9-4.7 4.2-4.7h26.7c2.4.1 4.3 2.2 4.3 4.7z" class="st0"/>
  <path d="M37 64.8h-4V50a42.52 42.52 0 0 1-19.8-36c0-4.3.6-8.5 1.9-12.6l.4-1.4h45.6l.4 1.4c1.2 4.1 1.9 8.3 1.9 12.6 0 14.7-7.6 28.4-19.8 36v10.8h-4V47.7l1-.6A38.45 38.45 0 0 0 59.4 14c0-3.4-.4-6.7-1.3-10H18.5c-.9 3.2-1.3 6.6-1.3 10 0 13.6 7.2 26.3 18.8 33.1l1 .6v17.1z" class="st0"/>
  <path d="M52 42a2 2 0 0 1-1.9-1.4c-.4-1 .2-2.2 1.2-2.5 12-4.1 20.3-15.9 21.2-29.8H60.7c-1.1 0-2-.9-2-2s.9-2 2-2h15.9v2c-.1 16.4-9.7 30.7-23.9 35.6-.2 0-.4.1-.7.1zM24.6 42c-.2 0-.4 0-.6-.1C9.8 37 .1 22.7 0 6.3v-2h15.9c1.1 0 2 .9 2 2s-.9 2-2 2H4.1c.8 13.8 9.2 25.7 21.2 29.8 1 .4 1.6 1.5 1.2 2.5a2 2 0 0 1-1.9 1.4zM64.6 100.3H12.1V89.8h52.4v10.5zm-48.5-4h44.4v-2.5H16.1v2.5z" class="st0"/>
  <path d="M62.8 93.8H13.9V70.7h48.9v23.1zm-44.9-4h40.9V74.7H17.9v15.1z" class="st0"/>
  <path fill="#fff" stroke="#fff" stroke-miterlimit="10" stroke-width="4" d="M22.3 79.1h32v6.3h-32z"/>
  <path d="M64.6 100.3H12.1V89.8h52.4v10.5zm-48.5-4h44.4v-2.5H16.1v2.5z" class="st0"/>
  <path d="M62.8 93.8H13.9V70.7h48.9v23.1zm-44.9-4h40.9V74.7H17.9v15.1z" class="st0"/>
  <g>
    <path fill="#fff" stroke="#fff" d="M32.7 4v10.8l-.2-.1-2.1-1.4-2.1 1.4-.2.1V4h4.6m4-4H23.9v22l6.4-4 6.4 4V0z"/>
  </g>
</svg>
