<svg xmlns="http://www.w3.org/2000/svg" xmlns:xlink="http://www.w3.org/1999/xlink" id="Layer_1" viewBox="0 0 40 48"><defs><path id="SVGID_1_" d="M37.2 41.2c-5 3.2-11 4.8-17.2 4.8S7.9 44.3 2.8 41.2v-6c0-3.1 2.7-5.7 6.1-6.1.3 1.6 1.4 3.2 3.7 5.2.2.2.4.3.7.3.1 0 .2 0 .3-.1l6.4-2.3 6.4 2.3c.1 0 .2.1.3.1.2 0 .5-.1.7-.3 2.2-2 3.4-3.6 3.7-5.2 3.4.4 6.1 2.9 6.1 6.1v6zM13 28.3c.9 1.4 2.5 2.4 3.9 3l-3.4 1.2C12.1 31.1 11.3 30 11 29c.7-.1 1.4-.3 2-.7zm.7-24.1S16.4 2 20.1 2c.7 0 1.5.1 2.1.2 1.4.4 3.6 1.5 3.8 2.5.1.4.4.7.8.8.1 0 1.3.2 2.1 1.5.6.9.8 2.2.6 3.8-1-2.1-2.7-4.3-5.6-4.3-.7 0-1.4.1-2.1.4-.3.1-.7.3-1.1.5-.8.5-3.4 2-5.7 2.3-1.5.2-2.9.8-3.9 1.7 0-2.2.4-5.4 2.6-7.2zm12.1 14.6c-2.1-3.5-5.3-3.6-5.9-3.6s-3.8 0-5.9 3.6c-.3.5-.9.5-1.2.1 0-.1-.1-.1-.2-.1-.6-1.4-.9-2.9-1-4.5l.3-.6c.7-1.1 1.9-1.8 3.5-2 2.6-.4 5.4-1.9 6.5-2.6.3-.2.5-.3.7-.4.5-.2 1-.3 1.5-.3 2.8 0 4.1 3.5 4.5 5.3 0 1.7-.3 3.3-.9 4.8-.2 0-.4.1-.5.3-.6.5-1.1.5-1.4 0zm-12.4 2.4c.9 0 1.7-.5 2.2-1.4 1.4-2.4 3.5-2.5 4.1-2.6.6 0 2.9.2 4.3 2.6.5.9 1.5 1.4 2.5 1.4-1.4 2-3.3 4-6.7 5-3.2-1-5-2.9-6.4-5zm6.6 9c-1.5-.4-4.9-1.6-5.5-3.5.2-.3.3-.6.4-.9 1.2 1 2.7 1.8 4.7 2.3h.6c2-.6 3.7-1.4 5-2.4.1.4.2.7.4 1-.7 1.9-4.1 3.1-5.6 3.5zm9-1.2c-.3 1-1.1 2.1-2.5 3.5L23 31.3c1.5-.6 3.1-1.6 3.9-3 .7.4 1.4.6 2.1.7zm1.2-1.9c-1.7.1-3.6-1.1-3.3-3.1 1-1.1 1.7-2.3 2.3-3.4.2-.3.2-.6 0-.9.6-1.4 1-2.9 1.2-4.5.1-.1.2-.2.2-.4 1.3-3.9 1.3-6.9 0-9-.9-1.4-2.2-2-2.9-2.2-1-2-4.3-3.1-5-3.4C21.9.1 21 0 20.1 0c-4.4 0-7.5 2.5-7.6 2.7-4.6 3.8-3 11.4-3 11.8 0 .1.1.2.1.2.1 1.9.6 3.7 1.3 5.4v.5c0 .2 0 .4.1.6.5.8 1.1 1.9 2.1 2.9.3 1.8-1.2 3.1-3.3 3-4.9 0-9 3.6-9 8.1v6.5c0 .3.2.7.4.8C6.8 46.1 13.2 48 20 48s13.3-1.9 18.7-5.4c.3-.2.4-.5.4-.8v-6.5c.1-4.6-4-8.2-8.9-8.2z"/></defs><clipPath id="SVGID_2_"><use overflow="visible" xlink:href="#SVGID_1_"/></clipPath><path fill="#fff" d="M-4.2-5h48.3v58H-4.2z" clip-path="url(#SVGID_2_)"/><path d="M19.6 17c0 1.9-.9 3.3-2.8 4.3s-3.5.8-4.8-.6M19.6 17c0 1.9.9 3.3 2.8 4.3s3.5.8 4.8-.6" fill="none" stroke="#fff" stroke-width="2" stroke-linecap="square" stroke-miterlimit="10"/></svg>