<?xml version="1.0" encoding="utf-8"?>
<!-- Generator: Adobe Illustrator 22.1.0, SVG Export Plug-In . SVG Version: 6.00 Build 0)  -->
<svg version="1.1" id="Layer_1" xmlns="http://www.w3.org/2000/svg" xmlns:xlink="http://www.w3.org/1999/xlink" x="0px" y="0px"
	 viewBox="0 0 35 49" style="enable-background:new 0 0 35 49;" xml:space="preserve">
<style type="text/css">
	.st0{clip-path:url(#SVGID_2_);fill: #fff}
</style>
<g>
	<defs>
		<path stroke="#fff" id="SVGID_1_" d="M32.9,42.3C28.5,45.4,23.4,47,18,47S7.5,45.4,3.1,42.3V37c0-1.5,0.5-2.8,1.5-3.9l2.8,1.7
			c0.4,0.2,0.8,0.3,1.2,0.3c0.9,0,1.6-0.5,2-1.2c1.4,2.7,4.2,4.5,7.5,4.5c4.3,0,7.9-3.3,8.4-7.5c0.1,0,0.1,0,0.2,0H27
			c3.3,0,6,2.7,6,6L32.9,42.3L32.9,42.3z M4,25.3c-0.3-0.2-0.4-0.5-0.4-0.9c0-0.3,0.1-0.7,0.3-0.9l0.7-0.7c0.6-0.7,0.9-1.5,0.8-2.4
			s-0.5-1.7-1.2-2.3c-0.3-0.3-0.5-0.6-0.6-1c0-0.2,0-0.5,0.3-0.9l1.6-1.8c0.4-0.5,0.7-1,0.8-1.6C6.5,11.2,7.7,6,13,3.7
			C14.1,3.2,15.3,3,16.5,3s2.4,0.3,3.4,0.8c1.1,0.5,1.9,1.2,2.2,2c0.1,0.3,0.4,0.5,0.7,0.6c3.2,1,3.7,4.9,3.7,7
			c-1.1-0.6-2.1-1.5-3.1-2.8c-0.6-0.8-1.5-1.3-2.4-1.3c-0.5,0-1.1-0.2-1.9-0.5c-0.4-0.2-0.8-0.3-1.3-0.3c-1.4,0-2.7,1-3.1,2.4
			c-0.1,0.3-0.2,0.7-0.2,1.1c-0.1,0.5-0.5,0.9-1,1l-2.4,0.3c-1.2,0.1-2.1,0.9-2.6,2c-0.4,1.1-0.3,2.3,0.5,3.2c0,0,0.6,0.6,0.2,1.4
			c-0.9,1.9-2.3,5.6-0.8,8.4c0,0,0.6,1.2,0.2,4.5c0,0.3-0.3,0.3-0.5,0.2l-2.8-1.7c-0.1-0.1-0.1-0.2-0.1-0.2c0-0.1,0-0.2,0.1-0.2
			c0.6-0.7,0.9-1.5,0.8-2.4S5.6,26.8,5,26.3L4,25.3z M13.8,27.2l0.2-1.1c1.2,0.8,2.6,1.3,4,1.3s2.8-0.5,4-1.3l0.2,1.1
			c0.2,1.4,1.1,2.6,2.3,3.2c-0.3,3.3-3.1,6-6.5,6s-6.2-2.7-6.5-6C12.7,29.7,13.6,28.6,13.8,27.2z M12.2,24.5l-0.4,2.4
			c-0.1,0.7-0.5,1.3-1.1,1.7c-0.1-0.7-0.3-1.1-0.4-1.2c-0.8-1.6-0.4-3.6,0.2-5.2C11,23,11.6,23.8,12.2,24.5z M25,14.8v1.6
			c-0.4,5.1-3.4,9-7,9c-2.9,0-5.5-2.6-6.5-6.3c0-1.1-0.8-1.8-0.8-1.8c-0.3-0.3-0.3-0.8-0.2-1.2c0.2-0.4,0.5-0.7,0.9-0.7l2.4-0.3
			c1.4-0.2,2.5-1.3,2.8-2.7c0.1-0.3,0.1-0.6,0.2-0.9c0.2-0.7,0.9-1.1,1.6-0.8c1,0.4,1.9,0.7,2.7,0.7l0,0c0.3,0,0.5,0.2,0.8,0.5
			C22.8,13.1,23.9,14.1,25,14.8z M29.5,25.1c-0.7,1.3-1,2.7-0.8,4.1c-0.6-0.1-1.2-0.2-1.8-0.2h-0.3c-1.2,0-2.3-0.9-2.5-2.1l-0.4-2.3
			c1.8-2,2.9-4.8,3.2-8.1V16l2.6,4.8C30.3,22.1,30.3,23.8,29.5,25.1z M31,30.1c-0.5-1.3-0.5-2.8,0.2-4c1.1-2,1.1-4.3,0.1-6.3
			l-2.8-5.3c0.1-1.5,0.3-8.2-4.8-10c-0.6-1-1.6-1.9-2.9-2.6c-2.6-1.3-5.8-1.3-8.6-0.1C6,4.5,4.6,10.6,4.3,12.4
			c0,0.2-0.1,0.4-0.3,0.6l-1.6,1.8c-0.6,0.6-0.8,1.5-0.8,2.3c0.1,0.9,0.5,1.8,1.3,2.4c0.3,0.2,0.4,0.5,0.4,0.9
			c0,0.3-0.1,0.7-0.3,0.9L2.3,22c-0.6,0.7-0.9,1.5-0.8,2.4s0.5,1.7,1.1,2.3l1.1,0.9c0.3,0.2,0.4,0.5,0.4,0.9c0,0.3-0.1,0.7-0.3,0.9
			c-0.4,0.5-0.6,1.1-0.5,1.8c-1.5,1.5-2.4,3.5-2.4,5.6v5.9c0,0.3,0.2,0.6,0.4,0.8C6.3,47.1,12,49,18,49s11.7-1.9,16.5-5.4
			c0.3-0.2,0.4-0.5,0.4-0.8V37C34.9,34.1,33.4,31.5,31,30.1z"/>
	</defs>
	<clipPath id="SVGID_2_">
		<use xlink:href="#SVGID_1_"  style="overflow:visible;"/>
	</clipPath>
	<rect x="-4.1" y="-4.1" class="st0" width="44" height="58.1"/>
</g>
</svg>
