<svg xmlns="http://www.w3.org/2000/svg" xmlns:xlink="http://www.w3.org/1999/xlink" viewBox="0 0 40 48">
  <defs>
    <path id="a" d="M36.3 43.8c-1.7.4-3.4.8-5.1 1.1.5-2.3 1.8-5.8 4.8-10.3.1.3 1.6 7 1.6 7 .2 1-.4 1.9-1.3 2.2zM11 45.4c-.4-2.7-1.8-6.9-5.8-12.6.9-1.4 3.9-2.1 4.4-2.3.9 4 5.3 7.1 10.5 7.1s9.6-3.1 10.5-7.1c.4.2 3.5.9 4.4 2.3-3.9 5.7-5.3 9.9-5.8 12.5-6.3.9-12.3.9-18.2.1zm-8.6-3.7s1.5-6.8 1.6-7.1c3.1 4.6 4.4 8.1 4.9 10.4-1.7-.3-3.5-.7-5.2-1.2-1-.2-1.5-1.2-1.3-2.1zm11.7-18c1.6 1.9 3.6 3.2 5.9 3.2s4.3-1.3 5.9-3.2c.1 2.2 1.2 4.1 2.8 5.5-.3 3.5-4 6.3-8.6 6.3s-8.4-2.8-8.6-6.3a8.2 8.2 0 0 0 2.6-5.5zM11.2 8.4c.8-4.9 4.6-5.4 4.7-5.5 1.4-.6 2.8-.9 4.1-.9 4.1 0 5.7 3.2 5.7 3.3.5.8 1.2.5 1.2.5.6 0 1.1 1.1 1.4 2.1-.4 0-.7.2-.9.5-.7 1.2-1.8 2-2.7 2.4 0-1.1-.3-2.2-.3-2.5-.1-.3-.4-.6-.7-.7-.4-.1-.8.1-1 .4-1.8 2.3-5.2 2.8-7.7 2.8-1.9 0-3.4-.3-3.4-.3h-.5c0-.8.1-1.6.1-2.1zm1.1 5.7v-1.5c2.2.3 7.1.5 10.4-2 0 .5 0 1-.2 1.3-.2.3-.2.8.1 1.1.2.3.6.5 1 .4.1 0 2.1-.5 3.8-2l.2 2.7c0 4.1-3.6 10.8-7.7 10.8-4 0-7.6-6.7-7.6-10.8zm27.3 27.1L38.2 35c-.7-3-2.9-5.3-5.8-6-2.7-.7-4.5-3.1-4.5-5.8v-2.4c.9-1.7 1.5-3.5 1.7-5.2 1-.9 1.3-3.3.8-7.5-.1-.4-.8-4-3.2-4.3-.8-1.2-3-3.8-7.2-3.8-1.5 0-3.1.3-4.8 1-.8.2-4.9 1.4-5.9 7-.1.6-1 5.5 1.2 7.9.3 1.5.8 3.2 1.6 4.7V23c0 2.7-1.9 5.1-4.5 5.8-2.9.8-5.2 3.1-5.8 6L.4 41c-.4 2 .8 3.9 2.7 4.5C8.5 47.2 14 48 19.6 48s11.4-.8 17.2-2.3c2-.5 3.2-2.5 2.8-4.5z"/>
  </defs>
  <clipPath id="b">
    <use overflow="visible" xlink:href="#a"/>
  </clipPath>
  <path fill="#fff" d="M-4.7-5h49.4v58H-4.7z" clip-path="url(#b)"/>
</svg>
