<svg xmlns="http://www.w3.org/2000/svg" id="Layer_1" viewBox="0 0 98.7 101.7">
  <style>
    .st0{fill:#fcfcfc}.st1{fill:#fff}
  </style>
  <path d="M66.3 71.1c-.4.4-.6.9-.6 1.4v29.2h4V73.3c2.3-2.4 4.1-5 5.6-7.9-1.7.5-3.5 1-5.4 1.2-1.1 1.6-2.3 3.1-3.6 4.5zM11.5 50.1v.9l-10 17.2c-.4.6-.4 1.4 0 2 .4.6 1 1 1.7 1h5.4v10.5c0 5.8 4.7 10.5 10.5 10.5h11.5v9.4h4V90.4a2 2 0 0 0-2-2H19.2c-3.6 0-6.5-2.9-6.5-6.5V69.3a2 2 0 0 0-2-2H6.8l8.5-14.7c.2-.3.3-.7.3-1.1v-1.3C15.6 38 23 27.5 33.5 23c.6-1.8 1.3-3.4 2.2-5-14 4-24.2 16.9-24.2 32.1z" class="st0"/>
  <path d="M65.2 0c-12.8 0-24 7.2-29.6 17.8a31.65 31.65 0 0 0-3.9 15.6c0 7.3 2.3 14.2 6.7 20l-2.5 9.3 9.3-2.5c5.8 4.4 12.7 6.7 20 6.7 1.6 0 3.2-.1 4.7-.3 1.8-.3 3.6-.7 5.4-1.2a33.5 33.5 0 0 0 23.4-31.9C98.7 15 83.6 0 65.2 0zm12.1 60.4c-1.6.7-3.2 1.3-4.9 1.7a29.4 29.4 0 0 1-25.6-5.5L46 56l-4.5 1.2 1.2-4.5-.6-.8a29.2 29.2 0 0 1-6.4-18.4c0-4.4 1-8.5 2.7-12.3.7-1.6 1.6-3.1 2.6-4.5A29.2 29.2 0 0 1 65.2 4c16.3 0 29.5 13.2 29.5 29.5 0 11.9-7.2 22.2-17.4 26.9z" class="st1"/>
  <g>
    <path d="M60.4 35.2L50 25.5l10.4-9.7 2.7 2.9-7.2 6.8 7.2 6.7z" class="st1"/>
    <path d="M53.9 23.5h21.9v4H53.9z" class="st1"/>
  </g>
  <g>
    <path d="M68.4 50.2l-2.8-3 7.3-6.7-7.3-6.8 2.8-2.9 10.4 9.7z" class="st1"/>
    <path d="M53 38.5h21.9v4H53z" class="st1"/>
  </g>
</svg>
