<svg xmlns="http://www.w3.org/2000/svg" id="Layer_1" viewBox="0 0 104.4 100.4"><style>.st0{fill:#fff}</style><path d="M45.2 94.9c-.9 0-1.7-.6-1.9-1.6l-1.7-7.5c-.2-1.1.4-2.1 1.5-2.4 1.1-.2 2.1.4 2.4 1.5l1.7 7.5c.2 1.1-.4 2.1-1.5 2.4-.2.1-.4.1-.5.1zM51.6 94.9c-.1 0-.3 0-.4-.1-1.1-.2-1.7-1.3-1.5-2.4l1.7-7.5c.2-1.1 1.3-1.8 2.4-1.5 1.1.2 1.7 1.3 1.5 2.4l-1.7 7.5c-.3 1-1.1 1.6-2 1.6z" class="st0"/><path fill="#fff" d="M43 92.2h11.1v8.3H43z"/><path d="M35.7 80.1c-.4 0-.9-.2-1.3-.5-16-13.2-24.3-30.4-22.2-46C14.1 15.1 30.4 0 48.5 0c1.1 0 2 .9 2 2s-.9 2-2 2C32.4 4 17.9 17.5 16.1 34.1 14.3 48.4 22 64.3 36.9 76.6a1.95 1.95 0 0 1-1.2 3.5z" class="st0"/><path d="M61.2 80.5c-.6 0-1.1-.2-1.5-.7-.7-.8-.6-2.1.2-2.8 15.5-13.2 23-28.4 21.1-42.7C79.2 17.5 64.7 4 48.5 4c-1.1 0-2-.9-2-2s.9-2 2-2C66.7 0 83 15.1 84.9 33.7 87 49.4 79 65.9 62.5 80c-.4.3-.9.5-1.3.5z" class="st0"/><path d="M39.2 79.9c-.6 0-1.1-.2-1.5-.7C26.4 65.9 21.3 50.5 23.4 36 25.4 21.9 34 9.2 47.5.3c.9-.6 2.2-.4 2.8.6.6.9.4 2.2-.6 2.8-12.5 8.2-20.4 19.9-22.3 32.9-1.9 13.4 2.8 27.7 13.4 40 .7.8.6 2.1-.2 2.8-.4.3-.9.5-1.4.5z" class="st0"/><path d="M51.7 79.6c-.2 0-.4 0-.5-.1a2 2 0 0 1-1.4-2.5c6.4-23 6-46.2-1.2-69-7.6 22.7-8 45.9-1.3 68.9a2 2 0 0 1-1.4 2.5 2 2 0 0 1-2.5-1.4C35.9 52.4 37 26.6 46.8 1.3c.3-.8 1-1.3 1.9-1.3.8 0 1.6.5 1.9 1.3 9.1 25.3 10.2 51.2 3.1 76.8-.3.9-1.1 1.5-2 1.5z" class="st0"/><path d="M57.8 79.8c-.5 0-.9-.2-1.3-.5-.8-.7-1-2-.2-2.8C66.8 64 71.4 50.2 69.5 36.6c-1.8-12.9-9.6-24.6-22-32.9-.9-.6-1.2-1.9-.5-2.8.6-.9 1.9-1.2 2.8-.5C63 9.3 71.4 22 73.4 36c2.1 14.5-3 29.8-14.1 43.1-.4.5-.9.7-1.5.7z" class="st0"/><path d="M53.6 87.4H43.5c-.5 0-1-.2-1.4-.5l-7.9-7.4c-.6-.6-.8-1.4-.5-2.2.3-.8 1-1.3 1.9-1.3h26c.8 0 1.6.5 1.9 1.3.3.8.1 1.6-.5 2.2l-8 7.4c-.4.4-.9.5-1.4.5zm-9.4-4h8.6l3.6-3.4H40.6l3.6 3.4z" class="st0"/><path d="M44.9 33.7c0-.2.1-.4.1-.7 0-2.6-2.1-4.7-4.7-4.7-.5 0-1 .1-1.4.3a9.7 9.7 0 0 0-9.6-8.3c-.7 0-1.4.1-2.1.2a11.86 11.86 0 0 0-20.3 5.1 6.96 6.96 0 0 0-6.9 8h44.9zM62.4 54.5h41.9v-.1a8.39 8.39 0 0 0-10.7-8.1c-.8-6-6-10.7-12.3-10.7C74.6 35.6 69 41.1 69 48v.1c-3.4.3-6.1 3-6.6 6.4z" fill="#fff"/></svg>