<svg xmlns="http://www.w3.org/2000/svg" id="Layer_1" viewBox="0 0 76.7 99.5">
  <style>
    .st0,.st1{fill:#fff}
  </style>
  <path d="M36.3 0h4v5.5h-4z" class="st0"/>
  <path d="M27.1 1.2h4v5.5h-4z" class="st0" transform="rotate(-15.01 29.12 3.97)"/>
  <path d="M18.5 4.8h4v5.5h-4z" class="st0" transform="rotate(-29.99 20.55 7.52)"/>
  <path d="M11.2 10.4h4v5.5h-4z" class="st0" transform="rotate(-45.01 13.18 13.18)"/>
  <path d="M5.5 17.8h4v5.5h-4z" class="st0" transform="rotate(-59.98 7.53 20.55)"/>
  <path d="M2 26.4h4v5.5H2z" class="st0" transform="rotate(-75.01 3.97 29.12)"/>
  <path d="M0 36.3h5.5v4H0z" class="st0"/>
  <path d="M1.2 45.5h5.5v4H1.2z" class="st0" transform="rotate(-15 3.97 47.54)"/>
  <path d="M4.8 54.1h5.5v4H4.8z" class="st0" transform="rotate(-29.99 7.53 56.12)"/>
  <path d="M67.1 53.4h4v5.5h-4z" class="st0" transform="rotate(-59.99 69.14 56.12)"/>
  <path d="M70.7 44.8h4v5.5h-4z" class="st0" transform="rotate(-75.01 72.7 47.54)"/>
  <path d="M71.1 36.3h5.5v4h-5.5z" class="st0"/>
  <path d="M69.9 27.1h5.5v4h-5.5z" class="st0" transform="rotate(-15.03 72.68 29.12)"/>
  <path d="M66.4 18.5h5.5v4h-5.5z" class="st0" transform="rotate(-29.99 69.14 20.55)"/>
  <path d="M60.7 11.2h5.5v4h-5.5z" class="st0" transform="rotate(-45 63.49 13.18)"/>
  <path d="M53.4 5.5h5.5v4h-5.5z" class="st0" transform="rotate(-60.01 56.12 7.53)"/>
  <path d="M44.8 2h5.5v4h-5.5z" class="st0" transform="rotate(-74.99 47.54 3.97)"/>
  <g>
    <path d="M61.5 60.6h4v5.5h-4z" class="st0" transform="rotate(-45 63.48 63.32)"/>
    <path d="M10.4 61.3h5.5v4h-5.5z" class="st0" transform="rotate(-45 13.18 63.32)"/>
  </g>
  <g>
    <path d="M53 35.8h-4v-1.1l-9.9-16-11.4 16.1v1h-4v-2.3l15.6-22 13.7 22z" class="st0"/>
    <path d="M49.2 37.9v45.6H27.5V37.9h21.7zm4-4H23.6v53.6h29.6V33.9z" class="st0"/>
    <path d="M31.9 37.2h4v48.9h-4zM40.3 37.2h4v48.9h-4zM35.8 18.7h7.5v4h-7.5z" class="st0"/>
    <g>
      <path d="M25.5 93.6h25.7v3.9H25.5z" class="st1"/>
      <path d="M53.1 91.6H23.5v5.9c0 1.1.9 2 2 2h25.7a2 2 0 0 0 2-2v-5.9h-.1z" class="st1"/>
    </g>
  </g>
</svg>
