<svg xmlns="http://www.w3.org/2000/svg" id="Layer_1" viewBox="0 0 97.2 97.5"><style>.st0{fill:#fff}</style><path d="M0 97.5l5.3-17.8 2-2.1 2.8 2.8-1.3 1.4-2.9 9.8 9.8-2.9 1.3-1.4 2.9 2.9-2.1 2z" class="st0"/><path d="M74.1 16.4l7 7-62.5 62.5-7-7 62.5-62.5zm0-5.6L5.9 78.9l12.7 12.7 68.1-68.1-12.6-12.7z" class="st0"/><path d="M1.6 48.3h91.3v4H1.6z" class="st0" transform="rotate(-45 47.2 50.28)"/><path d="M92.7 17.4l-2.8-2.8 3.4-3.4-6.9-6.9L83 7.7l-2.8-2.8 3.8-4c.6-.6 1.4-.9 2.2-.9.9 0 1.9.4 2.6 1.1l7.6 7.6c1.4 1.4 1.5 3.5.2 4.8l-3.9 3.9z" class="st0"/><path d="M75.5 7.7h10.6v17.9H75.5z" class="st0" transform="rotate(-45.01 80.81 16.66)"/><path d="M23.7 11.7c-3.7 0-6.8 3-6.8 6.7s3 6.8 6.8 6.8c1 0 2-.2 2.9-.6l-1.1-1.1 2.8-2.8 1.2 1.2c.6-1 .9-2.2.9-3.4a6.6 6.6 0 0 0-6.7-6.8z" class="st0"/><path d="M6.1 2.4v32.2h5.8l8.5 8.5v-8.5h23V2.4H6.1zM33.7 26l-2.8 2.8-1.3-1.3A10.82 10.82 0 0 1 13 18.4c0-5.9 4.8-10.7 10.8-10.7 5.9 0 10.7 4.8 10.7 10.7 0 2.4-.8 4.5-2.1 6.3l1.3 1.3z" class="st0"/><path d="M70.8 83h7.7l-3.9-6.8z" class="st0"/><path d="M87.1 65l-8.5-8.5V65h-23v32.2h37.3V65h-5.8zm-3.8 26.2L80.8 87H68.4L66 91.2l-3.5-2 10.4-17.9c.4-.6 1-1 1.7-1s1.4.4 1.7 1l10.4 17.9-3.4 2z" class="st0"/></svg>