<svg xmlns="http://www.w3.org/2000/svg" id="Layer_1" viewBox="0 0 88.9 97">
  <style>
    .st0{fill:#fff}
  </style>
  <path d="M48.9 0h4v8h-4z" class="st0"/>
  <path d="M39.3 3.1h4v8h-4z" class="st0" transform="rotate(-29.99 41.35 7.16)"/>
  <path d="M32.7 10.6h4v8h-4z" class="st0" transform="rotate(-60 34.66 14.65)"/>
  <path d="M28.6 22.5h8v4h-8z" class="st0"/>
  <path d="M31.7 32h8v4h-8z" class="st0" transform="rotate(-30 35.75 34.01)"/>
  <path d="M67.3 28.1h4v8h-4z" class="st0" transform="rotate(-60.01 69.3 32.11)"/>
  <path d="M67.3 20.3h8v4h-8z" class="st0"/>
  <path d="M64.2 10.8h8v4h-8z" class="st0" transform="rotate(-30 68.2 12.75)"/>
  <path d="M56.7 4.1h8v4h-8z" class="st0" transform="rotate(-60.02 60.7 6.07)"/>
  <g>
    <path d="M66.3 92.2H44.5c-4.4 0-8.5-1.9-11.4-5.3h-5.6v-4h7.6l.6.8c2.1 2.8 5.3 4.5 8.8 4.5h27a3.9 3.9 0 0 0 0-7.8v-4h4.7c2.2 0 3.9-1.8 3.9-3.9s-1.8-3.9-3.9-3.9v-4h1.6a3.9 3.9 0 0 0 0-7.8v-4H81a3.9 3.9 0 0 0 0-7.8H64.4c-.2 0-.4 0-.7.1H54.1l2.7-9.6v-8.1c0-3-2.4-5.4-5.4-5.4h-.8v10l-3.4 4.8-10.7 11.5c-1.3 1.4-2.3 3.1-2.7 5l-.4 1.5h-6v-4h2.9c.7-2 1.8-3.8 3.2-5.3l10.7-11.7 2.4-3.4V17.9l1.9-.1h2.9c5.2 0 9.4 4.2 9.4 9.4v8.6l-1.4 5.1h3.8c.4-.1.8-.1 1.2-.1H81a7.92 7.92 0 0 1 3.3 15.1c.9 1.3 1.5 2.9 1.5 4.6 0 2.8-1.4 5.2-3.6 6.6a8 8 0 0 1 2 5.2c0 3.7-2.5 6.8-5.9 7.7a7.92 7.92 0 0 1-6.7 12.1l-5.3.1z" class="st0"/>
  </g>
  <g>
    <path fill="#fff" d="M20.7 54.4V93H4V54.4h16.7m4-4H0V97h24.7V50.4z"/>
  </g>
  <g>
    <path fill="#fff" d="M14.3 86.8h3.1v3h-3.1z"/>
  </g>
</svg>
