<svg id="United_Kingdom" data-name="United Kingdom" xmlns="http://www.w3.org/2000/svg" width="54.25" height="36.906" viewBox="0 0 54.25 36.906">
  <metadata><?xpacket begin="﻿" id="W5M0MpCehiHzreSzNTczkc9d"?>
<x:xmpmeta xmlns:x="adobe:ns:meta/" x:xmptk="Adobe XMP Core 5.6-c142 79.160924, 2017/07/13-01:06:39        ">
   <rdf:RDF xmlns:rdf="http://www.w3.org/1999/02/22-rdf-syntax-ns#">
      <rdf:Description rdf:about=""/>
   </rdf:RDF>
</x:xmpmeta>
                                                                                                    
                                                                                                    
                                                                                                    
                                                                                                    
                                                                                                    
                                                                                                    
                                                                                                    
                                                                                                    
                                                                                                    
                                                                                                    
                                                                                                    
                                                                                                    
                                                                                                    
                                                                                                    
                                                                                                    
                                                                                                    
                                                                                                    
                                                                                                    
                                                                                                    
                                                                                                    
                           
<?xpacket end="w"?></metadata>
<defs>
    <style>
      .cls-1 {
        fill: #002c6e;
      }

      .cls-1, .cls-2, .cls-3 {
        fill-rule: evenodd;
      }

      .cls-2 {
        fill: #fff;
      }

      .cls-3 {
        fill: #d91616;
      }
    </style>
  </defs>
  <path id="Rounded_Rectangle_7_copy" data-name="Rounded Rectangle 7 copy" class="cls-1" d="M7.1,2.092H47.2A4.471,4.471,0,0,1,51.65,6.579V30.506A4.471,4.471,0,0,1,47.2,34.992H7.1A4.471,4.471,0,0,1,2.65,30.506V6.579A4.471,4.471,0,0,1,7.1,2.092Z" transform="translate(-0.375 -0.188)"/>
  <path id="Rectangle_5_copy_5" data-name="Rectangle 5 copy 5" class="cls-2" d="M2.268,36.893l-1.9-2.942,52.36-33.76,1.9,2.942Z" transform="translate(-0.375 -0.188)"/>
  <path id="Rectangle_5_copy_5-2" data-name="Rectangle 5 copy 5" class="cls-3" d="M1.952,36.4L0.688,34.442l52.36-33.76,1.264,1.961Z" transform="translate(-0.375 -0.188)"/>
  <path id="Rectangle_5_copy_6" data-name="Rectangle 5 copy 6" class="cls-2" d="M52.569,37.09l1.884-2.917L2.431,0.695,0.547,3.612Z" transform="translate(-0.375 -0.188)"/>
  <path id="Rectangle_5_copy_6-2" data-name="Rectangle 5 copy 6" class="cls-3" d="M52.883,36.6l1.256-1.945L2.117,1.181,0.861,3.126Z" transform="translate(-0.375 -0.188)"/>
  <path id="Rectangle_5_copy_4" data-name="Rectangle 5 copy 4" class="cls-2" d="M2.65,23.092v-8.4h49v8.4h-49Z" transform="translate(-0.375 -0.188)"/>
  <path id="Rectangle_5_copy_3" data-name="Rectangle 5 copy 3" class="cls-2" d="M22.95,2.092h8.4v32.9h-8.4V2.092Z" transform="translate(-0.375 -0.188)"/>
  <path id="Rectangle_5_copy_2" data-name="Rectangle 5 copy 2" class="cls-3" d="M2.65,21.692v-5.6h49v5.6h-49Z" transform="translate(-0.375 -0.188)"/>
  <path id="Rectangle_5_copy_2-2" data-name="Rectangle 5 copy 2" class="cls-3" d="M24.35,2.092h5.6v32.9h-5.6V2.092Z" transform="translate(-0.375 -0.188)"/>
</svg>
