<?xml version="1.0" encoding="utf-8"?>
<!-- Generator: Adobe Illustrator 22.1.0, SVG Export Plug-In . SVG Version: 6.00 Build 0)  -->
<svg version="1.1" id="Layer_1" xmlns="http://www.w3.org/2000/svg" xmlns:xlink="http://www.w3.org/1999/xlink" x="0px" y="0px"
	 viewBox="0 0 72.2 94.9" style="enable-background:new 0 0 72.2 94.9;" xml:space="preserve">
<style type="text/css">
	.st0{fill:#FFFFFF;}
</style>
<g>
	<path class="st0" d="M4.1,81.4H0V8.8h0.2c1-4.9,5.4-8.6,10.5-8.6h61.7v71.9H10.8c-3.7,0-6.8,3-6.8,6.8C4,79,4,79,4,79.1L4.1,81.4z
		 M4,11.3v59.2c1.9-1.5,4.2-2.4,6.8-2.4h57.7V4.2H10.8c-3.7,0-6.7,3-6.8,6.6L4,11.3z"/>
</g>
<g>
	<g>
		<path class="st0" d="M72.5,89.7H10.8C4.8,89.7,0,84.8,0,78.9c0-5.9,4.8-10.8,10.8-10.8h61.7V89.7z M10.8,72.1
			c-3.7,0-6.8,3-6.8,6.8c0,3.7,3,6.8,6.8,6.8h57.7V72.1H10.8z"/>
	</g>
</g>
<polygon class="st0" points="27.9,94.7 21.5,90.7 15.1,94.7 15.1,79.6 21.5,79.6 27.9,79.6 "/>
<g>
	<path class="st0" d="M10.1,79.4h60.4H10.1z"/>
	<rect x="10.1" y="77.4" class="st0" width="60.4" height="4"/>
</g>
<g>
	<path class="st0" d="M10.1,69.6V3V69.6z"/>
	<rect x="8.1" y="3" class="st0" width="4" height="66.5"/>
</g>
<g>
	<rect x="26.8" y="32" class="st0" width="27" height="4"/>
</g>
<g>
	<rect x="30" y="23.5" class="st0" width="20.7" height="4"/>
</g>
</svg>
