<!-- Generated by IcoMoon.io -->
<svg version="1.1" xmlns="http://www.w3.org/2000/svg" width="20" height="32" viewBox="0 0 20 32">
<title>phone</title>
<path d="M4 0v0c-2.209 0-4 1.791-4 4v24c0 2.209 1.791 4 4 4h12c2.209 0 4-1.791 4-4v-24c0-2.209-1.791-4-4-4h-12zM2 4h16v20h-16.062l0.062-20zM9.782 25.878c0.588 0 1.064 0.476 1.064 1.064s-0.476 1.064-1.064 1.064c-0.588 0-1.064-0.476-1.064-1.064v0c0-0.002-0-0.004-0-0.006 0-0.587 0.475-1.062 1.062-1.062 0.001 0 0.001 0 0.002 0h-0v0.004z"></path>
</svg>
