<svg xmlns="http://www.w3.org/2000/svg" width="15" height="14.5" viewBox="0 0 15 14.5">

<defs>
    <style>
      .cls-1 {
        fill-rule: evenodd;
      }
    </style>
  </defs>
  <path id="Search" class="cls-1" d="M286.7,11.641a4.018,4.018,0,0,1,3.411,6.154l-0.365.581-0.514.416a3.962,3.962,0,0,1-2.532.9,4.024,4.024,0,1,1,0-8.049h0Zm0-1.79a5.816,5.816,0,1,0,3.659,10.332,1.052,1.052,0,0,0,.156.235l3.622,3.623a1.025,1.025,0,0,0,1.448-1.45l-3.622-3.623a1.023,1.023,0,0,0-.336-0.225A5.806,5.806,0,0,0,286.7,9.851h0Z" transform="translate(-280.875 -9.844)"/>
</svg>
