<svg xmlns="http://www.w3.org/2000/svg" xmlns:xlink="http://www.w3.org/1999/xlink" viewBox="0 0 20 11"><defs><path id="a" d="M0 5.5C0 2.5 2.5 0 5.5 0H16c2.2 0 4 1.8 4 4s-1.8 4-4 4H7.5C6.1 8 5 6.9 5 5.5S6.1 3 7.5 3H15v2H7.4c-.5 0-.5 1 0 1H16c1.1 0 2-.9 2-2s-.9-2-2-2H5.5C3.6 2 2 3.6 2 5.5S3.6 9 5.5 9H15v2H5.5C2.5 11 0 8.5 0 5.5z"/></defs><clipPath id="b"><use overflow="visible" xlink:href="#a"/></clipPath><g fill="#d32a33" clip-path="url(#b)"><defs><path id="c" d="M-50-55h504v168H-50z"/></defs><clipPath id="d"><use overflow="visible" xlink:href="#c"/></clipPath><path d="M-5-5h30v21H-5z" clip-path="url(#d)"/></g></svg>