<svg version="1.1" id="Layer_1" xmlns="http://www.w3.org/2000/svg" x="0" y="0" viewBox="0 0 98.8 94.2" xml:space="preserve"><style>.st0{fill:#fff}</style><path class="st0" d="M94.4,82H5.6c-2.6,0-5.1-2.5-5.1-5.2v-10h98.4v10.1C98.9,79.4,97.2,82,94.4,82z M4.5,70.8v6 c0,0.5,0.7,1.2,1.1,1.2h88.8c0.1,0,0.4-0.5,0.4-1.1v-6.1H4.5z"/><path class="st0" d="M35.6,94.2L34,90.5c1-0.4,1.8-0.8,2.3-1.1l0.1-0.1c0.1-0.1,0.2-0.1,0.3-0.2c0-0.1,0.1-0.4,0.2-1 c0.2-1.1,0.2-3.2,0.2-5c0-1.3,0-2.5,0-3.3l4,0.3c-0.1,0.7,0,1.8,0,3c0,2.1,0.1,4.3-0.2,5.8c-0.5,2.4-1.1,3.1-2.6,3.9L38.2,93 C37.4,93.4,36.3,93.9,35.6,94.2z"/><path class="st0" d="M63.6,94.2c-0.8-0.4-1.9-0.8-2.6-1.2l-0.1-0.1c-1.6-0.9-2.1-1.6-2.5-3.9c-0.3-1.5-0.3-3.6-0.2-5.7 c0-1.2,0-2.3,0-2.9l4-0.3c0.1,0.9,0.1,2.1,0,3.3c0,1.7-0.1,3.8,0.2,4.9c0.1,0.6,0.2,0.9,0.2,1c0.1,0.1,0.2,0.1,0.3,0.2 c0.5,0.3,1.3,0.7,2.4,1.1L63.6,94.2z"/><path class="st0" d="M32.2,92.2h34.9H32.2z"/><path class="st0" d="M32.2 90.2H67.1V94.2H32.2z"/><path class="st0" d="M98.8,70.9H0.5V13.7c0-2.5,2.1-4.6,4.6-4.6h9.3v4H5.1c-0.3,0-0.6,0.3-0.6,0.6v53.2h90.3V13.7 c0-0.3-0.3-0.6-0.6-0.6H84v-4h10.2c2.5,0,4.6,2.1,4.6,4.6V70.9z"/><path class="st0" d="M51.8,61.6h-4c0-2-1.6-3.7-3.7-3.7h-31V0h31c4.2,0,7.7,3.4,7.7,7.7V61.6z M17.1,53.9h27 c1.3,0,2.6,0.3,3.7,0.9V7.7c0-2-1.6-3.7-3.7-3.7h-27V53.9z"/><path class="st0" d="M52,61.6h-4V7.7C48,3.4,51.4,0,55.6,0h31v57.9h-31C53.6,57.9,52,59.6,52,61.6z M55.6,4 c-2,0-3.7,1.6-3.7,3.7v47.2c1.1-0.6,2.3-0.9,3.7-0.9h27V4H55.6z"/><path class="st0" d="M20.9,10.4h13.5H20.9z"/><path class="st0" d="M20.9 8.4H34.4V12.4H20.9z"/><path class="st0" d="M20.9,17.8h22.7H20.9z"/><path class="st0" d="M20.9 15.8H43.599999999999994V19.8H20.9z"/><path class="st0" d="M20.9,25h22.7H20.9z"/><path class="st0" d="M20.9 23H43.599999999999994V27H20.9z"/><path class="st0" d="M20.9,32.2h22.7H20.9z"/><path class="st0" d="M20.9 30.2H43.599999999999994V34.2H20.9z"/><path class="st0" d="M20.9,39.5h22.7H20.9z"/><path class="st0" d="M20.9 37.5H43.599999999999994V41.5H20.9z"/><path class="st0" d="M20.9,46.7h22.7H20.9z"/><path class="st0" d="M20.9 44.7H43.599999999999994V48.7H20.9z"/><path class="st0" d="M55.3,17.8H78H55.3z"/><path class="st0" d="M55.3 15.8H78V19.8H55.3z"/><path class="st0" d="M55.3,25H78H55.3z"/><path class="st0" d="M55.3 23H78V27H55.3z"/><path class="st0" d="M55.3,32.2H78H55.3z"/><path class="st0" d="M55.3 30.2H78V34.2H55.3z"/><path class="st0" d="M55.3,39.5H78H55.3z"/><path class="st0" d="M55.3 37.5H78V41.5H55.3z"/><path class="st0" d="M55.3,46.7H78H55.3z"/><path class="st0" d="M55.3 44.7H78V48.7H55.3z"/></svg>