<svg xmlns="http://www.w3.org/2000/svg" xmlns:xlink="http://www.w3.org/1999/xlink" viewBox="0 0 35 49"><defs><path id="a" stroke="#fff" d="M32.9 42.3C28.5 45.4 23.4 47 18 47S7.5 45.4 3.1 42.3V37c0-1.5.5-2.8 1.5-3.9l2.8 1.7c.4.2.8.3 1.2.3.9 0 1.6-.5 2-1.2 1.4 2.7 4.2 4.5 7.5 4.5 4.3 0 7.9-3.3 8.4-7.5h.5c3.3 0 6 2.7 6 6l-.1 5.4zM4 25.3c-.3-.2-.4-.5-.4-.9 0-.3.1-.7.3-.9l.7-.7c.6-.7.9-1.5.8-2.4s-.5-1.7-1.2-2.3c-.3-.3-.5-.6-.6-1 0-.2 0-.5.3-.9l1.6-1.8c.4-.5.7-1 .8-1.6.2-1.6 1.4-6.8 6.7-9.1a8.42 8.42 0 0 1 6.9.1c1.1.5 1.9 1.2 2.2 2 .1.3.4.5.7.6 3.2 1 3.7 4.9 3.7 7-1.1-.6-2.1-1.5-3.1-2.8-.6-.8-1.5-1.3-2.4-1.3-.5 0-1.1-.2-1.9-.5-.4-.2-.8-.3-1.3-.3-1.4 0-2.7 1-3.1 2.4-.1.3-.2.7-.2 1.1-.1.5-.5.9-1 1l-2.4.3c-1.2.1-2.1.9-2.6 2-.4 1.1-.3 2.3.5 3.2 0 0 .6.6.2 1.4-.9 1.9-2.3 5.6-.8 8.4 0 0 .6 1.2.2 4.5 0 .3-.3.3-.5.2l-2.8-1.7c-.1-.1-.1-.2-.1-.2 0-.1 0-.2.1-.2.6-.7.9-1.5.8-2.4s-.5-1.7-1.1-2.2l-1-1zm9.8 1.9l.2-1.1c1.2.8 2.6 1.3 4 1.3s2.8-.5 4-1.3l.2 1.1c.2 1.4 1.1 2.6 2.3 3.2-.3 3.3-3.1 6-6.5 6s-6.2-2.7-6.5-6c1.2-.7 2.1-1.8 2.3-3.2zm-1.6-2.7l-.4 2.4c-.1.7-.5 1.3-1.1 1.7-.1-.7-.3-1.1-.4-1.2-.8-1.6-.4-3.6.2-5.2.5.8 1.1 1.6 1.7 2.3zM25 14.8v1.6c-.4 5.1-3.4 9-7 9-2.9 0-5.5-2.6-6.5-6.3 0-1.1-.8-1.8-.8-1.8-.3-.3-.3-.8-.2-1.2.2-.4.5-.7.9-.7l2.4-.3a3.4 3.4 0 0 0 2.8-2.7c.1-.3.1-.6.2-.9.2-.7.9-1.1 1.6-.8 1 .4 1.9.7 2.7.7.3 0 .5.2.8.5.9 1.2 2 2.2 3.1 2.9zm4.5 10.3c-.7 1.3-1 2.7-.8 4.1-.6-.1-1.2-.2-1.8-.2h-.3c-1.2 0-2.3-.9-2.5-2.1l-.4-2.3c1.8-2 2.9-4.8 3.2-8.1V16l2.6 4.8c.8 1.3.8 3 0 4.3zm1.5 5c-.5-1.3-.5-2.8.2-4 1.1-2 1.1-4.3.1-6.3l-2.8-5.3c.1-1.5.3-8.2-4.8-10-.6-1-1.6-1.9-2.9-2.6C18.2.6 15 .6 12.2 1.8 6 4.5 4.6 10.6 4.3 12.4c0 .2-.1.4-.3.6l-1.6 1.8c-.6.6-.8 1.5-.8 2.3.1.9.5 1.8 1.3 2.4.3.2.4.5.4.9 0 .3-.1.7-.3.9l-.7.7c-.6.7-.9 1.5-.8 2.4s.5 1.7 1.1 2.3l1.1.9c.3.2.4.5.4.9 0 .3-.1.7-.3.9-.4.5-.6 1.1-.5 1.8a7.96 7.96 0 0 0-2.4 5.6v5.9c0 .3.2.6.4.8C6.3 47.1 12 49 18 49s11.7-1.9 16.5-5.4c.3-.2.4-.5.4-.8V37c0-2.9-1.5-5.5-3.9-6.9z"/></defs><clipPath id="b"><use overflow="visible" xlink:href="#a"/></clipPath><path fill="#fff" d="M-4.1-4.1h44V54h-44z" clip-path="url(#b)"/></svg>