<svg xmlns="http://www.w3.org/2000/svg" id="Layer_1" viewBox="0 0 100 95.7"><style>.st0{fill:#fff}</style><path d="M9.6 76.6s-.1 0 0 0c2.3 10.1 10.5 16.1 24.3 18-1.3-.9-2.2-2.4-2.2-4.1v-.3c-8.4-1.6-14-5.1-16.8-10.5h-.4c-2.1 0-4-1.3-4.9-3.1zM9 43.7c-.1 0-.2.1-.2.1v25.9c0 .8 0 1.6.1 2.4.1 0 .1.1.2.1V43.7zM36.6 87.6H44a2.9 2.9 0 0 1 0 5.8h-.4v1.8c-3.5 0-6.7-.2-9.7-.6.8.5 1.7.8 2.7.8H44a4.9 4.9 0 0 0 0-9.8h-7.4c-2.6 0-4.7 2-4.8 4.5l2 .3c-.1-1.5 1.2-2.8 2.8-2.8z" class="st0"/><path d="M33.9 94.5c3 .4 6.2.6 9.7.6v-1.8h-7a2.9 2.9 0 0 1-2.9-2.9l-2-.3v.3c0 1.8.9 3.3 2.2 4.1z" class="st0"/><path d="M46.8 90.5c0-1.6-1.3-2.9-2.9-2.9h-7.4a2.9 2.9 0 0 0-2.9 2.9l2.1.3c0-.1-.1-.2-.1-.3 0-.5.4-.9.9-.9H44c.5 0 .9.4.9.9s-.4.9-.9.9h-.4v2h.4c1.5 0 2.8-1.3 2.8-2.9z" class="st0"/><path d="M36.6 91.4c-.4 0-.7-.3-.8-.6l-2.1-.3c0 1.6 1.3 2.9 2.9 2.9h7v-2h-7zM43.6 4.2h12.5c13 0 24.3 7.1 30.3 17.7 0-.3-.1-.7-.3-1A34.73 34.73 0 0 0 56.1 4H43.6c-12.4 0-23.6 6.3-30 16.9-.2.3-.3.7-.3 1 6-10.5 17.3-17.7 30.3-17.7z" class="st0"/><path d="M56.1 8.2H43.6a30.7 30.7 0 0 0-26.8 15.7c.2-.2.5-.4.6-.6C23 14 32.8 8.4 43.6 8.4h12.5c10.8 0 20.6 5.5 26.2 14.8.2.3.4.5.6.6A30.82 30.82 0 0 0 56.1 8.2z" class="st0"/><path d="M89.5 18.9A38.72 38.72 0 0 0 56.1 0H43.6C29.8 0 17.3 7.1 10.2 18.9c-1.5 2.5-1 5.7 1 7.6l.9-2.1c.4-.9.8-1.7 1.3-2.5 0-.3.1-.7.3-1A34.45 34.45 0 0 1 43.6 4h12.5c12.4 0 23.6 6.3 30 16.9.2.3.3.6.3 1 .5.8.9 1.6 1.3 2.5l.9 2.1c.8-.8 1.4-1.8 1.7-2.9.3-1.6.1-3.3-.8-4.7z" class="st0"/><path d="M84.2 26.3L83 23.9c-.2-.2-.5-.4-.6-.6A30.7 30.7 0 0 0 56.1 8.4H43.6C32.8 8.4 23 14 17.4 23.2c-.2.3-.4.5-.6.6-.4.8-.9 1.6-1.2 2.4-.3.6-.6 1.3-.8 2 .3 0 .5.1.8.1 2.2 0 4.2-1.2 5.3-3 4.9-8.1 13.4-12.9 22.8-12.9h12.5c9.4 0 17.9 4.8 22.8 12.9 1.1 1.9 3.1 3 5.3 3 .3 0 .5 0 .8-.1-.4-.6-.7-1.3-.9-1.9z" class="st0"/><path d="M14.3 24c-.7-.4-1.1-1.2-1.1-2.1-.5.8-.9 1.6-1.3 2.5l-.9 2.1C9.5 30.4 8.7 34.6 8.7 39v.5c.3-.1.6-.2 1-.3a6.1 6.1 0 0 1 3.1-2.6c.2-2.9.9-5.8 1.9-8.4.2-.7.5-1.3.8-2l1.2-2.4c-.6.6-1.6.6-2.4.2zM88.6 26.5l-.9-2.1c-.4-.9-.8-1.7-1.3-2.5v.7c-.1.6-.5 1.1-1 1.4-.8.5-1.7.4-2.4-.1.4.8.9 1.6 1.2 2.4.3.6.6 1.3.8 2 1 2.6 1.6 5.4 1.8 8.3 1.6.4 2.9 1.5 3.6 2.9.2 0 .4.1.5.1V39c0-4.4-.8-8.6-2.3-12.5zM9 74.1v-.4c-.1-.5-.1-1.1-.2-1.6A8.63 8.63 0 0 1 4 64.4v-13c0-3.3 1.9-6.2 4.8-7.6v-4.3C3.7 41.1 0 45.8 0 51.4v13c0 5.9 4.1 10.8 9.5 12.1 0-.1 0-.2-.1-.2-.2-.6-.4-1.4-.4-2.2z" class="st0"/><path d="M8.8 72.1c0 .5.1 1.1.2 1.6v-1.5s-.1-.1-.2-.1zM9.5 76.3c0 .1 0 .2.1.2h.1c-.2 0-.2-.1-.2-.2zM9 43.7V42c0-1 .3-1.9.7-2.7-.3.1-.6.2-1 .3v4.3c.1-.1.2-.2.3-.2zM13 74.1c0 .3.1.6.3.9l-.3-1.6v.7zM9 74.1c0 .8.2 1.5.5 2.2-.2-.8-.3-1.7-.5-2.6v.4zM12.9 72.9l.1-30h-.2v26.8c0 1.1 0 2.2.1 3.2zM12.5 76.9s-.1 0 0 0c.4.3.9.6 1.5.7-.1-.2-.2-.4-.2-.7h-1.3zM12.8 38.9h-.1.1zM12.9 72.9c0 .2 0 .3.1.5l-.1-.5z" class="st0"/><path d="M18.5 36.4h-3.9c-.6 0-1.2.1-1.7.3-1.3.4-2.5 1.4-3.1 2.6-.5.8-.8 1.7-.8 2.7v31.7c.1.9.3 1.8.5 2.6 0 .1.1.2.1.3.9 1.8 2.8 3.1 5 3.1h4c3 0 5.5-2.5 5.5-5.5V42c-.1-3.1-2.6-5.6-5.6-5.6zm-5.7 2.5zm-.4 38s.1 0 0 0h1.4c.1.2.2.4.2.7-.6-.1-1.1-.3-1.6-.7zm7.6-2.8c0 .8-.7 1.5-1.5 1.5h-4c-.5 0-1-.3-1.2-.6-.2-.3-.3-.6-.3-.9v-.7c0-.2 0-.3-.1-.5-.1-1-.2-2.1-.2-3.3V42.9h.3v-1c0-.8.7-1.5 1.5-1.5h4c.8 0 1.5.7 1.5 1.5v32.2zM90.9 39.6v1.5c0 .3.1.5.1.8v1.9c2.9 1.3 5 4.3 5 7.7v13c0 3.4-2.1 6.4-5 7.7v1.7a6 6 0 0 1-.7 2.7c5.6-1.3 9.7-6.2 9.7-12.2v-13c0-5.5-3.9-10.3-9.1-11.8z" class="st0"/><path d="M90.9 41.2v-1.5c-.2 0-.3-.1-.5-.1.3.4.4 1 .5 1.6zM87 69.7V42c0-.1 0-.3-.1-.4l.1 28.1zM91 43.9V42c0-.3 0-.5-.1-.8l.1 2.7c-.1 0 0 0 0 0zM86.9 39.1h.7c-.2-.2-.4-.3-.7-.4v.4zM86.9 41.6v-2.4H83v1.3h2.5c.7-.1 1.2.4 1.4 1.1z" class="st0"/><path d="M90.9 43.9v-2.7c-.1-.6-.3-1.2-.5-1.7-.7-1.4-2-2.5-3.6-2.9-.4-.1-.9-.2-1.4-.2h-3.9c-3.1 0-5.5 2.5-5.5 5.5v32.2c0 3 2.5 5.5 5.5 5.5h3.9c2.1 0 3.9-1.1 4.8-2.8.5-.8.7-1.7.7-2.7V43.9c.1 0 0 0 0 0zM80 74.1V42c0-.8.7-1.5 1.5-1.5H83v-1.3h3.9v-.1-.3c.2.1.5.2.7.4h-.7v2.4c0 .1.1.3.1.4v32.2c0 .8-.7 1.5-1.5 1.5h-4c-.8 0-1.5-.7-1.5-1.6zM38.6 55.2h4.1v4h-4.1zM47 55.2h4.1v4H47zM55.4 55.2h4.1v4h-4.1z" class="st0"/></svg>