<svg xmlns="http://www.w3.org/2000/svg" id="Layer_1" viewBox="0 0 65.7 98.1"><style>.st0{fill:#fff}</style><path d="M48.6 74.4H17.1l-2-1.9c-.2-3.7-1.1-6.6-2.3-8.3C.3 48.3 0 33 0 32.8 0 14.7 14.7 0 32.8 0c18.1 0 32.8 14.7 32.8 32.8 0 .1-.3 15.4-12.8 31.4-1.2 1.6-2.1 4.6-2.3 8.3l-1.9 1.9zm-29.7-4h27.9c.5-3.7 1.5-6.5 3-8.5 11.6-15 12-28.9 12-29-.1-16-13.1-28.9-29-28.9A28.8 28.8 0 0 0 4 32.8c0 .1.3 14.1 11.9 29 1.6 2.1 2.6 4.9 3 8.6z" class="st0"/><path d="M12.8 70.8h40.1v4H12.8zM12.8 78.6h40.1v4H12.8zM12.8 86.3h40.1v4H12.8zM18.2 94.1h29.2v4H18.2z" class="st0"/><path d="M15.4 73.2h4V88h-4z" class="st0"/><path d="M42.1 37.7h-4v-2L32.8 26l-5.2 9.7v2h-4v-3l9.2-17.1 9.3 17.1z" class="st0"/><path d="M23.3 35.7V74.8h19V35.7h-19zm15 20.3v14.9h-3.5V39.7h-4V70.9h-3.5V39.7h11V56z" class="st0"/></svg>