<!-- Generated by IcoMoon.io -->
<svg version="1.1" xmlns="http://www.w3.org/2000/svg" width="32" height="32" viewBox="0 0 32 32">
<title>insta</title>
<path d="M16 2.884c-4.272 0-4.777 0.016-6.466 0.092-1.559 0.071-2.407 0.332-2.971 0.551-0.747 0.29-1.28 0.636-1.84 1.196-0.56 0.562-0.907 1.093-1.196 1.842-0.219 0.562-0.48 1.41-0.551 2.969-0.076 1.687-0.092 2.194-0.092 6.466s0.016 4.777 0.092 6.466c0.071 1.559 0.332 2.407 0.551 2.971l0.011 0.034c0.259 0.687 0.667 1.302 1.185 1.806l0.001 0.001c0.503 0.517 1.118 0.925 1.841 1.195 0.562 0.219 1.41 0.48 2.969 0.551 1.687 0.076 2.194 0.092 6.466 0.092s4.777-0.016 6.466-0.092c1.559-0.071 2.407-0.332 2.971-0.551 0.747-0.29 1.28-0.636 1.84-1.196s0.907-1.093 1.196-1.84c0.219-0.564 0.48-1.412 0.551-2.971 0.076-1.687 0.092-2.194 0.092-6.466s-0.016-4.777-0.092-6.466c-0.071-1.559-0.332-2.407-0.551-2.971-0.29-0.747-0.636-1.28-1.196-1.84-0.562-0.56-1.093-0.907-1.842-1.196-0.562-0.219-1.41-0.48-2.969-0.551-1.687-0.076-2.194-0.092-6.466-0.092zM16 0c4.345 0 4.889 0.018 6.596 0.096 1.705 0.078 2.868 0.348 3.884 0.745 1.052 0.409 1.945 0.955 2.834 1.845 0.889 0.889 1.436 1.781 1.845 2.834 0.396 1.017 0.667 2.18 0.745 3.883 0.078 1.708 0.096 2.252 0.096 6.597s-0.018 4.889-0.096 6.596c-0.078 1.705-0.348 2.868-0.745 3.884-0.424 1.109-1.052 2.054-1.844 2.833l-0.001 0.001c-0.889 0.889-1.781 1.438-2.834 1.847-1.017 0.395-2.18 0.665-3.883 0.743-1.708 0.078-2.252 0.096-6.597 0.096s-4.889-0.018-6.596-0.096c-1.705-0.078-2.868-0.348-3.884-0.743-1.109-0.425-2.054-1.053-2.833-1.846l-0.001-0.001c-0.889-0.889-1.438-1.781-1.847-2.834-0.395-1.017-0.665-2.18-0.743-3.883-0.078-1.708-0.096-2.252-0.096-6.597s0.018-4.889 0.096-6.596c0.078-1.707 0.348-2.869 0.743-3.886 0.425-1.109 1.053-2.054 1.846-2.833l0.001-0.001c0.889-0.889 1.781-1.436 2.834-1.845 1.017-0.395 2.178-0.665 3.883-0.743 1.708-0.078 2.252-0.096 6.597-0.096zM16.032 7.81c-4.541 0-8.222 3.681-8.222 8.222s3.681 8.222 8.222 8.222v0c4.541 0 8.222-3.681 8.222-8.222s-3.681-8.222-8.222-8.222v0zM16.032 21.369c-2.947 0-5.337-2.389-5.337-5.337s2.389-5.337 5.337-5.337v0c2.947 0 5.337 2.389 5.337 5.337s-2.389 5.337-5.337 5.337v0zM26.414 7.429c0-1.053-0.853-1.906-1.906-1.906s-1.906 0.853-1.906 1.906v0c0 1.052 0.853 1.905 1.905 1.905s1.905-0.853 1.905-1.905v0z"></path>
</svg>
